<svg width="455" height="197" viewBox="0 0 455 197" fill="none" xmlns="http://www.w3.org/2000/svg">
<rect y="3" width="452" height="194" fill="#282828"/>
<mask id="mask0_539_6" style="mask-type:alpha" maskUnits="userSpaceOnUse" x="0" y="3" width="177" height="194">
<path d="M171.773 48.2332L92.4535 4.18039C91.1132 3.40718 89.5937 3 88.0456 3C86.4996 3 84.9801 3.40718 83.6398 4.18039L4.32017 48.2332C2.97581 49.0372 1.86974 50.1817 1.112 51.5511C0.352235 52.9203 -0.0306711 54.4657 0.0019196 56.0305V144.091C0.0121042 145.662 0.44393 147.199 1.24851 148.548C2.05513 149.896 3.20599 151.004 4.58498 151.758L83.9046 195.81C85.1919 196.556 86.6463 196.965 88.1353 197C89.6487 196.959 91.1315 196.552 92.4535 195.81L171.773 151.758C173.132 151.002 174.266 149.896 175.057 148.558C175.847 147.218 176.264 145.692 176.266 144.136V56.0305C176.281 54.4484 175.871 52.8914 175.081 51.5206C174.291 50.1497 173.148 49.0148 171.773 48.2332ZM79.3215 173.166L17.6273 138.893V70.8764L79.3215 105.149V173.166ZM88.1353 89.9071L26.9707 56.0305L88.1353 21.9777L149.3 55.9865L88.1353 89.9071ZM158.641 138.893L96.9469 173.166V105.149L158.641 70.8764V138.893Z" fill="#000467"/>
</mask>
<g mask="url(#mask0_539_6)">
<path d="M171.772 48.2334L92.4526 4.1806C91.1124 3.40739 89.5928 3.00021 88.0448 3.00021C86.4987 3.00021 84.9792 3.40739 83.6389 4.1806L4.31932 48.2334C2.97495 49.0374 1.86888 50.1819 1.11115 51.5513C0.35138 52.9206 -0.0315256 54.466 0.0010651 56.0307V144.091C0.0112497 145.662 0.443075 147.2 1.24766 148.548C2.05428 149.897 3.20514 151.005 4.58413 151.758L83.9037 195.811C85.1911 196.556 86.6454 196.966 88.1344 197C89.6478 196.959 91.1307 196.552 92.4526 195.811L171.772 151.758C173.131 151.003 174.265 149.897 175.056 148.558C175.846 147.218 176.264 145.692 176.266 144.136V56.0307C176.28 54.4486 175.871 52.8916 175.08 51.5208C174.29 50.1499 173.147 49.015 171.772 48.2334ZM79.3207 173.166L17.6265 138.893V70.8766L79.3207 105.15V173.166ZM88.1344 89.9073L26.9698 56.0307L88.1344 21.978L149.299 55.9867L88.1344 89.9073ZM158.64 138.893L96.9461 173.166V105.15L158.64 70.8766V138.893Z" fill="url(#paint0_radial_539_6)"/>
<path d="M-8.52173 55.6956L88.134 0.0625381V22.0963L0.143309 71.19L-8.52173 55.6956Z" fill="#FD0054"/>
<path d="M200.712 26.9887L83.4397 92.5621L92.024 107.914L209.296 42.341L200.712 26.9887Z" fill="#FD0054"/>
<path d="M96.9049 171.651L182.673 125.531L191.562 141.427L96.8643 194.1L96.8846 182.874L96.9049 171.651Z" fill="#FD0054"/>
<path d="M158.538 50.9784V185.339H176.127V50.9784H158.538Z" fill="#FD0054"/>
<path d="M106.788 100.336L11.8423 47.529L3.38387 62.7369L98.3294 115.544L106.788 100.336Z" fill="#FD0054"/>
<path d="M-8.4571 56.1932L-14.4977 67.033L15.2483 83.6092L21.2888 72.7693L-8.4571 56.1932Z" fill="url(#paint1_radial_539_6)"/>
<path d="M91.2613 117.721L87.2588 110.399L117.142 94.0719L121.143 101.394L91.2613 117.721Z" fill="url(#paint2_radial_539_6)"/>
<path d="M88.132 22.0961V13.2823L158.273 50.7392L149.093 55.8806L88.132 22.0961Z" fill="url(#paint3_radial_539_6)"/>
<path d="M167.126 66.1558V56.248L88.132 99.9478L88.1829 109.956L167.126 66.1558Z" fill="#E4004C"/>
<path d="M167.076 65.9028L158.274 70.9374V138.875L167.041 142.865L167.076 65.9028Z" fill="#BA1D51"/>
<path d="M80.84 193.438L80.8359 183.52L-7.3606 135.202V144.554L80.84 193.438Z" fill="url(#paint4_radial_539_6)"/>
<path d="M79.3188 193.222L88.1326 217.459V109.863L79.3188 105.089V193.222Z" fill="url(#paint5_radial_539_6)"/>
<path d="M96.946 172.658V182.573L167.085 142.913L158.64 138.873L96.946 172.658Z" fill="url(#paint6_radial_539_6)"/>
<path d="M79.3188 193.222L88.1326 217.459V109.863L79.3188 105.089V193.222Z" fill="url(#paint7_radial_539_6)"/>
<path d="M96.946 172.658V182.573L167.085 142.913L158.64 138.873L96.946 172.658Z" fill="#D60047"/>
<path d="M0.594152 148.726L9.40589 172.961V65.3646L0.592163 60.5907L0.594152 148.726Z" fill="url(#paint8_radial_539_6)"/>
<path d="M88.1997 109.905L88.1977 99.988L-0.000854492 52.9428V61.0216L88.1997 109.905Z" fill="#D60047"/>
<path d="M88.1315 22.0198V13.2829L17.257 50.7397L26.804 56.2481L88.1315 22.0198Z" fill="#D60047"/>
</g>
<path d="M246.573 101.035C241.465 101.035 236.462 100.311 231.562 98.8612C226.731 97.3429 222.659 95.2724 219.346 92.6498L225.04 82.1939C227.662 84.3334 230.837 86.0588 234.564 87.3701C238.36 88.6814 242.294 89.3371 246.366 89.3371C251.128 89.3371 254.854 88.3363 257.546 86.3349C260.307 84.3334 261.687 81.6418 261.687 78.26C261.687 75.9825 261.1 73.981 259.927 72.2556C258.823 70.5302 256.821 69.2189 253.923 68.3217C251.093 67.4245 247.194 66.9759 242.225 66.9759H224.729L228.456 27.5334H271.004V38.8175H233.425L240.465 32.399L237.67 61.9033L230.63 55.5883H245.227C252.404 55.5883 258.167 56.5545 262.515 58.487C266.932 60.3504 270.141 62.973 272.143 66.3548C274.213 69.6675 275.249 73.4634 275.249 77.7424C275.249 81.9524 274.213 85.8172 272.143 89.3371C270.072 92.8569 266.898 95.6865 262.619 97.826C258.409 99.9655 253.06 101.035 246.573 101.035ZM277.939 100L310.549 27.5334H323.8L356.513 100H342.434L314.379 34.6765H319.762L291.811 100H277.939ZM292.95 83.2291L296.573 72.6697H335.705L339.328 83.2291H292.95ZM365.729 100V27.5334H376.806L408.485 80.434H402.687L433.848 27.5334H444.925L445.028 100H432.295L432.191 47.5134H434.883L408.381 91.7181H402.377L375.46 47.5134H378.566V100H365.729Z" fill="white"/>
<path d="M233.636 169.57C230.988 169.57 228.441 169.146 225.996 168.297C223.586 167.414 221.718 166.293 220.394 164.935L221.871 162.032C223.127 163.255 224.808 164.29 226.913 165.139C229.052 165.954 231.293 166.361 233.636 166.361C235.877 166.361 237.694 166.09 239.086 165.546C240.512 164.969 241.547 164.205 242.193 163.255C242.872 162.304 243.211 161.251 243.211 160.097C243.211 158.705 242.804 157.584 241.989 156.735C241.208 155.886 240.172 155.224 238.882 154.749C237.592 154.24 236.166 153.798 234.604 153.425C233.042 153.051 231.48 152.661 229.918 152.253C228.356 151.812 226.913 151.235 225.589 150.522C224.299 149.809 223.246 148.875 222.431 147.72C221.65 146.532 221.26 144.987 221.26 143.086C221.26 141.32 221.718 139.707 222.635 138.247C223.586 136.753 225.029 135.565 226.964 134.682C228.899 133.765 231.378 133.307 234.4 133.307C236.403 133.307 238.39 133.595 240.359 134.172C242.328 134.716 244.026 135.48 245.452 136.464L244.179 139.469C242.651 138.451 241.021 137.704 239.29 137.228C237.592 136.753 235.945 136.515 234.349 136.515C232.21 136.515 230.444 136.804 229.052 137.381C227.66 137.958 226.624 138.739 225.945 139.724C225.3 140.675 224.978 141.761 224.978 142.984C224.978 144.376 225.368 145.496 226.149 146.345C226.964 147.194 228.017 147.856 229.307 148.332C230.631 148.807 232.074 149.231 233.636 149.605C235.198 149.978 236.743 150.386 238.271 150.827C239.833 151.269 241.259 151.846 242.549 152.559C243.873 153.238 244.926 154.155 245.707 155.309C246.522 156.464 246.929 157.975 246.929 159.842C246.929 161.574 246.454 163.187 245.503 164.681C244.552 166.141 243.092 167.329 241.123 168.246C239.188 169.129 236.692 169.57 233.636 169.57ZM262.901 169.264V156.022L263.767 158.365L248.64 133.612H252.663L265.957 155.36H263.818L277.111 133.612H280.88L265.753 158.365L266.619 156.022V169.264H262.901ZM295.809 169.57C293.16 169.57 290.614 169.146 288.169 168.297C285.758 167.414 283.891 166.293 282.566 164.935L284.043 162.032C285.3 163.255 286.981 164.29 289.086 165.139C291.225 165.954 293.466 166.361 295.809 166.361C298.05 166.361 299.866 166.09 301.258 165.546C302.685 164.969 303.72 164.205 304.365 163.255C305.044 162.304 305.384 161.251 305.384 160.097C305.384 158.705 304.976 157.584 304.162 156.735C303.381 155.886 302.345 155.224 301.055 154.749C299.764 154.24 298.338 153.798 296.776 153.425C295.215 153.051 293.653 152.661 292.091 152.253C290.529 151.812 289.086 151.235 287.761 150.522C286.471 149.809 285.419 148.875 284.604 147.72C283.823 146.532 283.432 144.987 283.432 143.086C283.432 141.32 283.891 139.707 284.807 138.247C285.758 136.753 287.201 135.565 289.137 134.682C291.072 133.765 293.551 133.307 296.573 133.307C298.576 133.307 300.562 133.595 302.532 134.172C304.501 134.716 306.199 135.48 307.625 136.464L306.352 139.469C304.824 138.451 303.194 137.704 301.462 137.228C299.764 136.753 298.118 136.515 296.522 136.515C294.383 136.515 292.617 136.804 291.225 137.381C289.833 137.958 288.797 138.739 288.118 139.724C287.473 140.675 287.15 141.761 287.15 142.984C287.15 144.376 287.541 145.496 288.322 146.345C289.137 147.194 290.189 147.856 291.48 148.332C292.804 148.807 294.247 149.231 295.809 149.605C297.371 149.978 298.916 150.386 300.444 150.827C302.005 151.269 303.432 151.846 304.722 152.559C306.046 153.238 307.099 154.155 307.88 155.309C308.694 156.464 309.102 157.975 309.102 159.842C309.102 161.574 308.627 163.187 307.676 164.681C306.725 166.141 305.265 167.329 303.296 168.246C301.36 169.129 298.865 169.57 295.809 169.57ZM323.743 169.264V136.872H311.214V133.612H340.041V136.872H327.512V169.264H323.743ZM349.424 149.554H368.269V152.763H349.424V149.554ZM349.831 166.005H371.274V169.264H346.063V133.612H370.51V136.872H349.831V166.005ZM380.133 169.264V133.612H383.24L399.538 161.421H397.908L414.054 133.612H417.161V169.264H413.544V139.266H414.41L399.538 164.732H397.756L382.782 139.266H383.749V169.264H380.133ZM438.607 169.57C435.958 169.57 433.412 169.146 430.967 168.297C428.556 167.414 426.689 166.293 425.365 164.935L426.842 162.032C428.098 163.255 429.779 164.29 431.884 165.139C434.023 165.954 436.264 166.361 438.607 166.361C440.848 166.361 442.664 166.09 444.057 165.546C445.483 164.969 446.518 164.205 447.163 163.255C447.842 162.304 448.182 161.251 448.182 160.097C448.182 158.705 447.775 157.584 446.96 156.735C446.179 155.886 445.143 155.224 443.853 154.749C442.563 154.24 441.136 153.798 439.575 153.425C438.013 153.051 436.451 152.661 434.889 152.253C433.327 151.812 431.884 151.235 430.56 150.522C429.269 149.809 428.217 148.875 427.402 147.72C426.621 146.532 426.23 144.987 426.23 143.086C426.23 141.32 426.689 139.707 427.606 138.247C428.556 136.753 429.999 135.565 431.935 134.682C433.87 133.765 436.349 133.307 439.371 133.307C441.374 133.307 443.36 133.595 445.33 134.172C447.299 134.716 448.997 135.48 450.423 136.464L449.15 139.469C447.622 138.451 445.992 137.704 444.26 137.228C442.563 136.753 440.916 136.515 439.32 136.515C437.181 136.515 435.415 136.804 434.023 137.381C432.631 137.958 431.595 138.739 430.916 139.724C430.271 140.675 429.948 141.761 429.948 142.984C429.948 144.376 430.339 145.496 431.12 146.345C431.935 147.194 432.987 147.856 434.278 148.332C435.602 148.807 437.045 149.231 438.607 149.605C440.169 149.978 441.714 150.386 443.242 150.827C444.804 151.269 446.23 151.846 447.52 152.559C448.844 153.238 449.897 154.155 450.678 155.309C451.493 156.464 451.9 157.975 451.9 159.842C451.9 161.574 451.425 163.187 450.474 164.681C449.523 166.141 448.063 167.329 446.094 168.246C444.158 169.129 441.663 169.57 438.607 169.57Z" fill="white"/>
<defs>
<radialGradient id="paint0_radial_539_6" cx="0" cy="0" r="1" gradientUnits="userSpaceOnUse" gradientTransform="translate(88.1323 99.9998) rotate(90) scale(96.9996 88.1341)">
<stop stop-color="#E3E3E3"/>
<stop offset="1" stop-color="#E3E3E3"/>
</radialGradient>
<radialGradient id="paint1_radial_539_6" cx="0" cy="0" r="1" gradientUnits="userSpaceOnUse" gradientTransform="translate(3.39548 69.9013) rotate(29.1291) scale(17.0264 6.20465)">
<stop stop-color="#E3E3E3"/>
<stop offset="1" stop-color="#E3E3E3"/>
</radialGradient>
<radialGradient id="paint2_radial_539_6" cx="0" cy="0" r="1" gradientUnits="userSpaceOnUse" gradientTransform="translate(104.202 105.897) rotate(-28.6507) scale(17.0264 4.17203)">
<stop stop-color="#E3E3E3"/>
<stop offset="1" stop-color="#E3E3E3"/>
</radialGradient>
<radialGradient id="paint3_radial_539_6" cx="0" cy="0" r="1" gradientUnits="userSpaceOnUse" gradientTransform="translate(122.183 35.5959) rotate(15.856) scale(38.8526 12.161)">
<stop stop-color="#B6B6B6"/>
<stop offset="1" stop-color="#CCCCCC"/>
</radialGradient>
<radialGradient id="paint4_radial_539_6" cx="0" cy="0" r="1" gradientUnits="userSpaceOnUse" gradientTransform="translate(36.867 164.121) rotate(-147.563) scale(52.8382 7.20975)">
<stop stop-color="#B6B6B6"/>
<stop offset="1" stop-color="#CCCCCC"/>
</radialGradient>
<radialGradient id="paint5_radial_539_6" cx="0" cy="0" r="1" gradientUnits="userSpaceOnUse" gradientTransform="translate(99.0362 162.029) rotate(-147.563) scale(47.1807 52.6323)">
<stop stop-color="#B6B6B6"/>
<stop offset="1" stop-color="#CCCCCC"/>
</radialGradient>
<radialGradient id="paint6_radial_539_6" cx="0" cy="0" r="1" gradientUnits="userSpaceOnUse" gradientTransform="translate(99.0359 162.029) rotate(-147.563) scale(47.1807 52.6323)">
<stop stop-color="#B6B6B6"/>
<stop offset="1" stop-color="#CCCCCC"/>
</radialGradient>
<radialGradient id="paint7_radial_539_6" cx="0" cy="0" r="1" gradientUnits="userSpaceOnUse" gradientTransform="translate(99.0362 162.029) rotate(-147.563) scale(47.1807 52.6323)">
<stop stop-color="#B6B6B6"/>
<stop offset="1" stop-color="#CCCCCC"/>
</radialGradient>
<radialGradient id="paint8_radial_539_6" cx="0" cy="0" r="1" gradientUnits="userSpaceOnUse" gradientTransform="translate(5.18744 116.482) rotate(-147.563) scale(33.8552 45.4051)">
<stop stop-color="#B6B6B6"/>
<stop offset="1" stop-color="#CCCCCC"/>
</radialGradient>
</defs>
</svg>
