<svg width="515" height="69" viewBox="0 0 515 69" fill="none" xmlns="http://www.w3.org/2000/svg">
<path d="M75.3422 20.0742C75.2548 20.4825 75.0652 20.8032 74.7736 21.0365C74.482 21.2698 74.1613 21.3864 73.8114 21.3864C73.2865 21.3864 72.8637 21.226 72.543 20.9053C72.2222 20.5554 72.0618 20.1617 72.0618 19.7243C72.0618 19.2869 72.1056 18.8641 72.193 18.4559C72.2805 18.0185 72.3243 17.5957 72.3243 17.1875C72.3243 15.0588 71.6682 13.1489 70.356 11.4577C69.0439 9.76644 67.1777 8.35222 64.7574 7.21501C62.3664 6.04864 59.4505 5.15928 56.0097 4.54694C52.5689 3.93459 48.7345 3.62842 44.5064 3.62842C41.2697 3.62842 38.0039 3.84712 34.7089 4.2845C31.443 4.69273 28.2938 5.30508 25.2613 6.12154C22.2579 6.90883 19.444 7.91483 16.8197 9.13952C14.1954 10.335 11.9064 11.7347 9.95269 13.3384C8.02818 14.913 6.5119 16.6772 5.40385 18.6308C4.2958 20.5554 3.74177 22.6694 3.74177 24.973C3.74177 26.7517 4.12084 28.3263 4.87898 29.6968C5.66628 31.0381 6.73059 32.219 8.07192 33.2396C9.41324 34.231 10.9878 35.0912 12.7957 35.8202C14.6327 36.52 16.6156 37.1178 18.7442 37.6135C20.8728 38.08 23.0889 38.4737 25.3925 38.7944C27.6961 39.086 30.0142 39.3339 32.347 39.538L39.0828 40.1066C42.4361 40.3982 45.4395 40.7044 48.093 41.0251C50.7464 41.3459 53.0792 41.7541 55.0912 42.2498C58.4445 43.0954 60.923 44.3055 62.5268 45.8801C64.1305 47.4547 64.9324 49.5542 64.9324 52.1785C64.9324 54.7154 64.2326 56.9461 62.8329 58.8706C61.4333 60.7951 59.5234 62.4134 57.1032 63.7256C54.6829 65.0377 51.8545 66.0292 48.6178 66.6998C45.3811 67.3705 41.9112 67.7058 38.208 67.7058C34.184 67.7058 30.6412 67.4288 27.5794 66.8748C24.5469 66.3499 21.9954 65.7667 19.9251 65.1252C17.884 64.4546 16.324 63.8422 15.2451 63.2882C14.1662 62.7342 13.583 62.428 13.4955 62.3697C12.9707 62.0781 12.7082 61.6115 12.7082 60.97C12.7082 60.4743 12.8832 60.0807 13.2331 59.7891C13.583 59.4683 13.9621 59.308 14.3703 59.308C14.6911 59.308 14.9827 59.3954 15.2451 59.5704C15.2742 59.5704 15.77 59.8328 16.7322 60.3577C17.7236 60.8534 19.1816 61.4074 21.1061 62.0198C23.0598 62.6321 25.4654 63.1861 28.323 63.6818C31.1806 64.1775 34.5048 64.4254 38.2955 64.4254C42.057 64.4254 45.3811 64.1192 48.2679 63.5069C51.1547 62.8945 53.5749 62.0489 55.5286 60.97C57.5114 59.862 58.9985 58.579 59.9899 57.121C61.0105 55.6339 61.5208 54.0301 61.5208 52.3097C61.5208 51.2892 61.3312 50.4144 60.9522 49.6854C60.6023 48.9273 60.1066 48.2858 59.465 47.7609C58.8235 47.2069 58.0508 46.7403 57.1469 46.3613C56.2721 45.9822 55.3099 45.6614 54.2601 45.399C53.1521 45.1074 51.9565 44.8596 50.6735 44.6554C49.4197 44.4513 48.1221 44.2764 46.7808 44.1306C45.4395 43.9848 44.0836 43.8536 42.7131 43.7369C41.3718 43.6203 40.045 43.5037 38.7328 43.387L31.9971 42.8184C26.6901 42.381 22.0538 41.7104 18.0881 40.8064C14.1516 39.8733 10.8712 38.6924 8.24687 37.2636C5.62254 35.8056 3.6543 34.0707 2.34213 32.0587C1.02997 30.0467 0.373883 27.6994 0.373883 25.0167C0.373883 22.2757 0.986227 19.7681 2.21091 17.4936C3.46476 15.1901 5.156 13.1197 7.28462 11.2827C9.4424 9.44569 11.9501 7.85651 14.8077 6.51518C17.6945 5.1447 20.7708 4.00749 24.0366 3.10356C27.3024 2.19962 30.6849 1.52896 34.184 1.09157C37.6831 0.625022 41.1239 0.391748 44.5064 0.391748C48.7345 0.391748 52.4085 0.654181 55.5286 1.17905C58.6777 1.67475 61.3604 2.33084 63.5765 3.14729C65.8218 3.93459 67.6588 4.83853 69.0876 5.8591C70.5164 6.87968 71.6682 7.88567 72.543 8.87708C74.6133 11.2973 75.6484 14.0528 75.6484 17.1437C75.6484 18.1643 75.5464 19.1411 75.3422 20.0742ZM80.5472 62.2822C81.0137 61.2908 81.5532 60.2265 82.1655 59.0893C82.7778 57.9229 83.4339 56.7419 84.1338 55.5464C84.8336 54.3217 85.5771 53.1116 86.3644 51.9161C87.1517 50.7206 87.9682 49.5979 88.8138 48.5482C89.6594 47.5276 90.505 46.7987 91.3507 46.3613C92.2254 45.8947 93.0419 45.6614 93.8 45.6614C94.5582 45.6614 95.2143 45.8218 95.7683 46.1426C96.3515 46.4342 96.818 46.8424 97.1679 47.3673C97.547 47.8921 97.824 48.5045 97.999 49.2043C98.2031 49.9041 98.3051 50.6622 98.3051 51.4787C98.3051 52.1494 98.2322 53.0533 98.0864 54.1905C97.9698 55.2986 97.9115 56.4649 97.9115 57.6896C97.9115 58.3894 97.9406 59.0893 97.999 59.7891C98.0864 60.4597 98.2177 61.0721 98.3926 61.6261C98.5967 62.151 98.8883 62.5884 99.2674 62.9383C99.6465 63.259 100.142 63.4194 100.755 63.4194C101.454 63.4194 102.154 63.2299 102.854 62.8508C103.554 62.4426 104.239 61.9177 104.91 61.2762C105.58 60.6055 106.222 59.8766 106.834 59.0893C107.447 58.2728 108.001 57.4709 108.496 56.6836C108.992 55.8672 109.429 55.0945 109.808 54.3655C110.188 53.6073 110.494 52.9804 110.727 52.4847C111.019 51.814 111.529 51.4787 112.258 51.4787C112.754 51.4787 113.147 51.6537 113.439 52.0036C113.73 52.3535 113.876 52.7326 113.876 53.1408C113.876 53.3741 113.832 53.5928 113.745 53.7969C113.628 54.0301 113.395 54.5113 113.045 55.2402C112.724 55.9692 112.272 56.8148 111.689 57.7771C111.135 58.7394 110.479 59.7453 109.721 60.7951C108.963 61.8448 108.117 62.8216 107.184 63.7256C106.28 64.6004 105.289 65.3293 104.21 65.9125C103.16 66.4665 102.052 66.7436 100.886 66.7436C99.5444 66.7436 98.4655 66.4665 97.6491 65.9125C96.8326 65.3293 96.1911 64.6004 95.7245 63.7256C95.2872 62.8508 94.981 61.874 94.806 60.7951C94.6602 59.7162 94.5873 58.6665 94.5873 57.6459C94.5873 57.121 94.6019 56.567 94.6311 55.9838C94.6894 55.3715 94.7477 54.7737 94.806 54.1905C94.8643 53.6073 94.9081 53.0679 94.9372 52.5722C94.9956 52.0473 95.0247 51.6099 95.0247 51.26C95.0247 50.3561 94.8935 49.7437 94.6311 49.423C94.3978 49.1022 94.1208 48.9419 93.8 48.9419C93.3335 48.9419 92.794 49.2189 92.1817 49.7729C91.5985 50.2978 90.9716 50.9976 90.3009 51.8724C89.6594 52.7471 89.0033 53.7385 88.3327 54.8466C87.6912 55.9255 87.0643 57.0044 86.4519 58.0833C85.8396 59.1622 85.2855 60.1973 84.7898 61.1887C84.2941 62.151 83.8859 62.9529 83.5651 63.5944C82.9528 64.8191 82.3259 65.6355 81.6844 66.0437C81.072 66.4811 80.518 66.6998 80.0223 66.6998C79.1184 66.6998 78.4185 66.3499 77.9228 65.6501C77.4563 64.9211 77.223 64.0463 77.223 63.0258V60.2702C77.223 54.7591 77.223 49.5105 77.223 44.5242C77.2522 39.5088 77.3251 34.8579 77.4417 30.5715C77.5875 26.256 77.8062 22.3632 78.0978 18.8933C78.4185 15.3942 78.8851 12.4199 79.4974 9.97055C80.1098 7.49202 80.8825 5.58209 81.8156 4.24077C82.7778 2.89944 83.9734 2.22878 85.4022 2.22878C86.6269 2.22878 87.662 2.56411 88.5076 3.23477C89.3533 3.90543 90.0385 4.82395 90.5634 5.99032C91.0882 7.12753 91.4673 8.46885 91.7006 10.0143C91.9338 11.5306 92.0505 13.1343 92.0505 14.8256C92.0505 18.2664 91.7297 21.6488 91.0882 24.973C90.4759 28.268 89.6448 31.4901 88.5951 34.6393C87.5454 37.7885 86.3207 40.8647 84.9211 43.8681C83.5214 46.8424 82.0489 49.7437 80.5034 52.5722C80.5034 53.097 80.5034 53.724 80.5034 54.4529C80.5034 55.1819 80.5034 55.9109 80.5034 56.6399C80.5034 57.3689 80.5034 58.0541 80.5034 58.6956C80.5034 59.3371 80.5034 59.8474 80.5034 60.2265L80.5472 62.2822ZM80.5472 46.1426C81.7719 43.4599 82.8799 40.8502 83.8713 38.3133C84.8919 35.7473 85.7521 33.1959 86.4519 30.659C87.1809 28.1222 87.7495 25.5562 88.1577 22.961C88.566 20.3367 88.7701 17.6103 88.7701 14.7818C88.7701 14.3153 88.7409 13.5717 88.6826 12.5511C88.6534 11.5306 88.5222 10.4954 88.2889 9.44569C88.0848 8.39595 87.7495 7.47744 87.2829 6.69014C86.8456 5.90284 86.2186 5.50919 85.4022 5.50919C84.7607 5.50919 84.2067 5.94658 83.7401 6.82136C83.2736 7.66697 82.8653 8.83334 82.5154 10.3205C82.1655 11.7784 81.8739 13.4842 81.6406 15.4379C81.4074 17.3916 81.2178 19.4619 81.072 21.6488C80.9262 23.8358 80.8096 26.081 80.7221 28.3846C80.6638 30.6882 80.6201 32.9334 80.5909 35.1204C80.5617 37.2782 80.5472 39.3047 80.5472 41.2001C80.5472 43.0954 80.5472 44.7429 80.5472 46.1426ZM144.581 53.7969C144.464 54.0301 144.216 54.5258 143.837 55.284C143.487 56.013 143.021 56.8586 142.438 57.8208C141.884 58.7831 141.228 59.7891 140.469 60.8388C139.711 61.8885 138.866 62.8508 137.933 63.7256C136.999 64.6004 135.993 65.3293 134.915 65.9125C133.836 66.4665 132.698 66.7436 131.503 66.7436C129.812 66.7436 128.383 66.2041 127.217 65.1252C126.079 64.0463 125.248 62.6904 124.723 61.0575C123.732 62.7196 122.551 64.0463 121.181 65.0377C119.81 66 118.44 66.4811 117.069 66.4811C115.99 66.4811 115.013 66.2916 114.139 65.9125C113.264 65.5043 112.52 64.9503 111.908 64.2504C111.296 63.5215 110.814 62.6758 110.465 61.7136C110.144 60.7513 109.983 59.7016 109.983 58.5644C109.983 56.29 110.362 54.2926 111.121 52.5722C111.908 50.8226 112.899 49.3647 114.095 48.1983C115.29 47.0319 116.603 46.1571 118.031 45.574C119.489 44.9908 120.889 44.6992 122.23 44.6992C123.134 44.6992 123.965 44.8304 124.723 45.0928C125.482 45.3261 126.123 45.5885 126.648 45.8801C127.202 46.1717 127.625 46.4487 127.916 46.7112C128.208 46.9444 128.368 47.0757 128.397 47.1048C128.718 47.4839 128.879 47.8775 128.879 48.2858C128.879 48.7232 128.718 49.1168 128.397 49.4667C128.077 49.7875 127.698 49.9478 127.26 49.9478C126.794 49.9478 126.4 49.7875 126.079 49.4667C126.021 49.4084 125.89 49.3063 125.686 49.1605C125.482 48.9856 125.205 48.8106 124.855 48.6357C124.505 48.4607 124.082 48.3149 123.586 48.1983C123.12 48.0525 122.58 47.9796 121.968 47.9796C121.064 47.9796 120.102 48.1837 119.081 48.5919C118.061 49.0002 117.127 49.6417 116.282 50.5165C115.436 51.3621 114.722 52.441 114.139 53.7531C113.585 55.0361 113.308 56.567 113.308 58.3457C113.308 58.8997 113.366 59.4683 113.483 60.0515C113.599 60.6055 113.803 61.1158 114.095 61.5824C114.386 62.0489 114.78 62.428 115.276 62.7196C115.772 63.0112 116.384 63.157 117.113 63.157C117.638 63.157 118.235 62.982 118.906 62.6321C119.606 62.2822 120.262 61.7428 120.874 61.0138C121.516 60.2848 122.084 59.3663 122.58 58.2582C123.105 57.1502 123.47 55.838 123.674 54.3217C123.732 53.9135 123.922 53.5782 124.242 53.3157C124.563 53.0241 124.942 52.8783 125.379 52.8783C125.788 52.8783 126.138 53.0387 126.429 53.3595C126.75 53.6802 126.925 54.0447 126.954 54.4529C126.983 55.007 127.042 55.7943 127.129 56.8148C127.217 57.8063 127.406 58.7977 127.698 59.7891C128.018 60.7805 128.485 61.6407 129.097 62.3697C129.71 63.0987 130.555 63.4631 131.634 63.4631C132.334 63.4631 133.019 63.2736 133.69 62.8945C134.39 62.5155 135.06 62.0198 135.702 61.4074C136.373 60.7659 136.999 60.0515 137.583 59.2642C138.195 58.4478 138.749 57.6313 139.245 56.8148C139.74 55.9984 140.178 55.2111 140.557 54.4529C140.936 53.6948 141.257 53.0387 141.519 52.4847C141.665 52.1639 141.869 51.9161 142.131 51.7411C142.423 51.5662 142.729 51.4787 143.05 51.4787C143.546 51.4787 143.939 51.6682 144.231 52.0473C144.552 52.3972 144.712 52.7763 144.712 53.1845C144.712 53.3886 144.668 53.5928 144.581 53.7969ZM145.018 62.2822C145.485 61.2908 146.024 60.2265 146.637 59.0893C147.249 57.9229 147.905 56.7419 148.605 55.5464C149.305 54.3217 150.048 53.1116 150.835 51.9161C151.623 50.7206 152.439 49.5979 153.285 48.5482C154.13 47.5276 154.976 46.7987 155.822 46.3613C156.696 45.8947 157.513 45.6614 158.271 45.6614C159.029 45.6614 159.685 45.8218 160.239 46.1426C160.823 46.4342 161.289 46.8424 161.639 47.3673C162.018 47.8921 162.295 48.5045 162.47 49.2043C162.674 49.9041 162.776 50.6622 162.776 51.4787C162.776 52.1494 162.703 53.0533 162.557 54.1905C162.441 55.2986 162.383 56.4649 162.383 57.6896C162.383 58.3894 162.412 59.0893 162.47 59.7891C162.557 60.4597 162.689 61.0721 162.864 61.6261C163.068 62.151 163.359 62.5884 163.738 62.9383C164.118 63.259 164.613 63.4194 165.226 63.4194C165.925 63.4194 166.625 63.2299 167.325 62.8508C168.025 62.4426 168.71 61.9177 169.381 61.2762C170.051 60.6055 170.693 59.8766 171.305 59.0893C171.918 58.2728 172.472 57.4709 172.967 56.6836C173.463 55.8672 173.9 55.0945 174.279 54.3655C174.659 53.6073 174.965 52.9804 175.198 52.4847C175.49 51.814 176 51.4787 176.729 51.4787C177.225 51.4787 177.618 51.6537 177.91 52.0036C178.201 52.3535 178.347 52.7326 178.347 53.1408C178.347 53.3741 178.303 53.5928 178.216 53.7969C178.099 54.0301 177.866 54.5113 177.516 55.2402C177.195 55.9692 176.743 56.8148 176.16 57.7771C175.606 58.7394 174.95 59.7453 174.192 60.7951C173.434 61.8448 172.588 62.8216 171.655 63.7256C170.751 64.6004 169.76 65.3293 168.681 65.9125C167.631 66.4665 166.523 66.7436 165.357 66.7436C164.015 66.7436 162.937 66.4665 162.12 65.9125C161.304 65.3293 160.662 64.6004 160.196 63.7256C159.758 62.8508 159.452 61.874 159.277 60.7951C159.131 59.7162 159.058 58.6665 159.058 57.6459C159.058 57.121 159.073 56.567 159.102 55.9838C159.16 55.3715 159.219 54.7737 159.277 54.1905C159.335 53.6073 159.379 53.0679 159.408 52.5722C159.467 52.0473 159.496 51.6099 159.496 51.26C159.496 50.3561 159.365 49.7437 159.102 49.423C158.869 49.1022 158.592 48.9419 158.271 48.9419C157.805 48.9419 157.265 49.2189 156.653 49.7729C156.07 50.2978 155.443 50.9976 154.772 51.8724C154.13 52.7471 153.474 53.7385 152.804 54.8466C152.162 55.9255 151.535 57.0044 150.923 58.0833C150.311 59.1622 149.757 60.1973 149.261 61.1887C148.765 62.151 148.357 62.9529 148.036 63.5944C147.424 64.8191 146.797 65.6355 146.155 66.0437C145.543 66.4811 144.989 66.6998 144.493 66.6998C143.589 66.6998 142.89 66.3499 142.394 65.6501C141.927 64.9211 141.694 64.0463 141.694 63.0258V60.2702C141.694 54.7591 141.694 49.5105 141.694 44.5242C141.723 39.5088 141.796 34.8579 141.913 30.5715C142.059 26.256 142.277 22.3632 142.569 18.8933C142.89 15.3942 143.356 12.4199 143.968 9.97055C144.581 7.49202 145.354 5.58209 146.287 4.24077C147.249 2.89944 148.444 2.22878 149.873 2.22878C151.098 2.22878 152.133 2.56411 152.979 3.23477C153.824 3.90543 154.51 4.82395 155.034 5.99032C155.559 7.12753 155.938 8.46885 156.172 10.0143C156.405 11.5306 156.522 13.1343 156.522 14.8256C156.522 18.2664 156.201 21.6488 155.559 24.973C154.947 28.268 154.116 31.4901 153.066 34.6393C152.016 37.7885 150.792 40.8647 149.392 43.8681C147.992 46.8424 146.52 49.7437 144.974 52.5722C144.974 53.097 144.974 53.724 144.974 54.4529C144.974 55.1819 144.974 55.9109 144.974 56.6399C144.974 57.3689 144.974 58.0541 144.974 58.6956C144.974 59.3371 144.974 59.8474 144.974 60.2265L145.018 62.2822ZM145.018 46.1426C146.243 43.4599 147.351 40.8502 148.342 38.3133C149.363 35.7473 150.223 33.1959 150.923 30.659C151.652 28.1222 152.221 25.5562 152.629 22.961C153.037 20.3367 153.241 17.6103 153.241 14.7818C153.241 14.3153 153.212 13.5717 153.154 12.5511C153.124 11.5306 152.993 10.4954 152.76 9.44569C152.556 8.39595 152.221 7.47744 151.754 6.69014C151.317 5.90284 150.69 5.50919 149.873 5.50919C149.232 5.50919 148.678 5.94658 148.211 6.82136C147.745 7.66697 147.336 8.83334 146.986 10.3205C146.637 11.7784 146.345 13.4842 146.112 15.4379C145.878 17.3916 145.689 19.4619 145.543 21.6488C145.397 23.8358 145.281 26.081 145.193 28.3846C145.135 30.6882 145.091 32.9334 145.062 35.1204C145.033 37.2782 145.018 39.3047 145.018 41.2001C145.018 43.0954 145.018 44.7429 145.018 46.1426ZM180.49 61.1887C181.103 62.0343 181.89 62.7196 182.852 63.2445C183.815 63.7402 184.996 63.988 186.395 63.988C187.824 63.988 189.122 63.6527 190.288 62.982C191.454 62.2822 192.519 61.3783 193.481 60.2702C194.443 59.1622 195.303 57.9229 196.061 56.5524C196.82 55.1819 197.505 53.8114 198.117 52.441C198.263 52.1202 198.467 51.8869 198.729 51.7411C198.992 51.5662 199.284 51.4787 199.604 51.4787C200.1 51.4787 200.494 51.6537 200.785 52.0036C201.106 52.3535 201.266 52.7326 201.266 53.1408C201.266 53.2866 201.252 53.4178 201.223 53.5344C201.193 53.6219 201.15 53.724 201.091 53.8406C199.079 58.2728 196.878 61.6115 194.487 63.8568C192.125 66.1021 189.442 67.2538 186.439 67.3122C184.514 67.3122 182.852 66.9331 181.453 66.175C180.053 65.446 178.901 64.4983 177.997 63.3319C177.093 62.1364 176.423 60.7951 175.985 59.308C175.548 57.8208 175.329 56.3337 175.329 54.8466C175.329 53.3595 175.504 51.989 175.854 50.7351C176.233 49.4813 176.758 48.3878 177.429 47.4547C178.129 46.5216 178.945 45.7927 179.878 45.2678C180.84 44.7429 181.89 44.4805 183.027 44.4805C183.698 44.4805 184.354 44.6263 184.996 44.9179C185.666 45.1803 186.264 45.574 186.789 46.0988C187.314 46.5945 187.736 47.2069 188.057 47.9359C188.378 48.6648 188.538 49.4959 188.538 50.429C188.538 51.6245 188.334 52.7471 187.926 53.7969C187.518 54.8466 186.949 55.8234 186.22 56.7274C185.52 57.6313 184.675 58.4623 183.683 59.2205C182.692 59.9786 181.628 60.6347 180.49 61.1887ZM179.178 58.3457C180.082 57.9666 180.899 57.4855 181.628 56.9023C182.386 56.3191 183.027 55.6776 183.552 54.9778C184.077 54.278 184.485 53.549 184.777 52.7909C185.068 52.0036 185.214 51.2163 185.214 50.429C185.214 49.5542 184.996 48.8981 184.558 48.4607C184.121 47.9942 183.61 47.7609 183.027 47.7609C182.24 47.7609 181.569 47.9796 181.015 48.417C180.461 48.8544 180.009 49.423 179.659 50.1228C179.309 50.8226 179.047 51.6099 178.872 52.4847C178.726 53.3303 178.653 54.1759 178.653 55.0216C178.653 55.5464 178.697 56.1004 178.785 56.6836C178.901 57.2668 179.032 57.8208 179.178 58.3457ZM203.41 61.1887C204.022 62.0343 204.809 62.7196 205.771 63.2445C206.734 63.7402 207.915 63.988 209.314 63.988C210.743 63.988 212.041 63.6527 213.207 62.982C214.373 62.2822 215.438 61.3783 216.4 60.2702C217.362 59.1622 218.222 57.9229 218.981 56.5524C219.739 55.1819 220.424 53.8114 221.036 52.441C221.182 52.1202 221.386 51.8869 221.649 51.7411C221.911 51.5662 222.203 51.4787 222.523 51.4787C223.019 51.4787 223.413 51.6537 223.704 52.0036C224.025 52.3535 224.185 52.7326 224.185 53.1408C224.185 53.2866 224.171 53.4178 224.142 53.5344C224.113 53.6219 224.069 53.724 224.011 53.8406C221.999 58.2728 219.797 61.6115 217.406 63.8568C215.044 66.1021 212.361 67.2538 209.358 67.3122C207.434 67.3122 205.771 66.9331 204.372 66.175C202.972 65.446 201.82 64.4983 200.916 63.3319C200.012 62.1364 199.342 60.7951 198.904 59.308C198.467 57.8208 198.248 56.3337 198.248 54.8466C198.248 53.3595 198.423 51.989 198.773 50.7351C199.152 49.4813 199.677 48.3878 200.348 47.4547C201.048 46.5216 201.864 45.7927 202.797 45.2678C203.759 44.7429 204.809 44.4805 205.946 44.4805C206.617 44.4805 207.273 44.6263 207.915 44.9179C208.585 45.1803 209.183 45.574 209.708 46.0988C210.233 46.5945 210.656 47.2069 210.976 47.9359C211.297 48.6648 211.457 49.4959 211.457 50.429C211.457 51.6245 211.253 52.7471 210.845 53.7969C210.437 54.8466 209.868 55.8234 209.139 56.7274C208.44 57.6313 207.594 58.4623 206.602 59.2205C205.611 59.9786 204.547 60.6347 203.41 61.1887ZM202.097 58.3457C203.001 57.9666 203.818 57.4855 204.547 56.9023C205.305 56.3191 205.946 55.6776 206.471 54.9778C206.996 54.278 207.404 53.549 207.696 52.7909C207.988 52.0036 208.133 51.2163 208.133 50.429C208.133 49.5542 207.915 48.8981 207.477 48.4607C207.04 47.9942 206.53 47.7609 205.946 47.7609C205.159 47.7609 204.488 47.9796 203.934 48.417C203.38 48.8544 202.928 49.423 202.579 50.1228C202.229 50.8226 201.966 51.6099 201.791 52.4847C201.645 53.3303 201.573 54.1759 201.573 55.0216C201.573 55.5464 201.616 56.1004 201.704 56.6836C201.82 57.2668 201.952 57.8208 202.097 58.3457ZM225.673 48.0233C225.556 48.8106 225.41 49.5542 225.235 50.254C225.06 50.9247 224.885 51.5224 224.71 52.0473C224.565 52.543 224.433 52.9512 224.317 53.272C224.2 53.5928 224.127 53.7677 224.098 53.7969C223.806 54.4675 223.296 54.8029 222.567 54.8029C222.159 54.8029 221.78 54.6571 221.43 54.3655C221.08 54.0447 220.905 53.6511 220.905 53.1845C220.905 53.0096 220.934 52.8783 220.993 52.7909C221.051 52.7034 221.138 52.5284 221.255 52.266C221.372 52.0036 221.517 51.5662 221.692 50.9538C221.867 50.3415 222.086 49.3938 222.348 48.1108C221.853 48.1108 221.342 48.0962 220.818 48.0671C220.293 48.0379 219.812 47.9359 219.374 47.7609C218.908 47.586 218.529 47.3089 218.237 46.9299C217.945 46.5508 217.8 46.0259 217.8 45.3553C217.8 44.8596 217.945 44.1889 218.237 43.3433C218.499 42.4977 218.864 41.6666 219.33 40.8502C219.797 40.0337 220.322 39.3339 220.905 38.7507C221.488 38.1384 222.071 37.8322 222.655 37.8322C223.325 37.8322 223.865 38.08 224.273 38.5758C224.71 39.0715 225.046 39.6838 225.279 40.4128C225.512 41.1126 225.673 41.8562 225.76 42.6435C225.877 43.4308 225.935 44.116 225.935 44.6992C226.431 44.6992 226.912 44.6992 227.378 44.6992C227.874 44.67 228.341 44.6554 228.778 44.6554C230.44 44.6554 231.709 45.0199 232.583 45.7489C233.458 46.4779 233.896 47.6734 233.896 49.3355C233.896 50.0062 233.852 50.706 233.764 51.435C233.677 52.1639 233.575 52.9221 233.458 53.7094C233.341 54.4675 233.239 55.2257 233.152 55.9838C233.064 56.7419 233.021 57.4855 233.021 58.2145C233.021 59.2642 233.167 60.139 233.458 60.8388C233.75 61.5095 234.114 62.0489 234.552 62.4572C234.989 62.8654 235.456 63.157 235.951 63.3319C236.447 63.4777 236.899 63.5506 237.307 63.5506C238.561 63.5506 239.742 63.1424 240.85 62.3259C241.958 61.5095 242.979 60.5326 243.912 59.3954C244.845 58.2291 245.676 57.0044 246.405 55.7214C247.163 54.4384 247.79 53.3157 248.286 52.3535C248.431 52.0911 248.636 51.8869 248.898 51.7411C249.16 51.5953 249.437 51.5224 249.729 51.5224C250.254 51.5224 250.662 51.6974 250.954 52.0473C251.245 52.3681 251.391 52.7326 251.391 53.1408C251.391 53.4324 251.333 53.6948 251.216 53.9281C250.545 55.1236 249.758 56.4795 248.854 57.9958C247.979 59.4829 246.973 60.8826 245.836 62.1947C244.699 63.5069 243.416 64.6149 241.987 65.5189C240.588 66.4228 239.042 66.8748 237.351 66.8748C236.301 66.8748 235.31 66.6707 234.377 66.2624C233.444 65.8834 232.627 65.3293 231.927 64.6004C231.257 63.8422 230.717 62.9237 230.309 61.8448C229.901 60.7368 229.697 59.4975 229.697 58.127C229.697 56.669 229.842 55.2257 230.134 53.7969C230.426 52.3389 230.571 50.9538 230.571 49.6417C230.571 49.0877 230.44 48.6794 230.178 48.417C229.944 48.1254 229.405 47.9796 228.559 47.9796C228.151 47.9796 227.699 47.9796 227.203 47.9796C226.737 47.9796 226.227 47.9942 225.673 48.0233ZM222.742 44.7867C222.742 44.5826 222.728 44.3201 222.698 43.9994C222.698 43.6495 222.669 43.3141 222.611 42.9934C222.582 42.6726 222.523 42.3956 222.436 42.1623C222.378 41.9291 222.305 41.8124 222.217 41.8124C222.13 41.8124 222.013 41.9291 221.867 42.1623C221.751 42.3664 221.619 42.6289 221.474 42.9496C221.328 43.2412 221.197 43.562 221.08 43.9119C220.963 44.2618 220.876 44.5534 220.818 44.7867H222.742ZM351.859 65.7813C351.976 65.9854 352.034 66.2333 352.034 66.5249C352.034 66.9623 351.874 67.3413 351.553 67.6621C351.261 67.9828 350.868 68.1432 350.372 68.1432C350.051 68.1432 349.76 68.0703 349.497 67.9245C349.264 67.7787 349.074 67.56 348.929 67.2684C348.375 66.1895 347.879 64.8482 347.442 63.2445C347.033 61.6115 346.669 59.8037 346.348 57.8208C346.056 55.838 345.809 53.7094 345.605 51.435C345.43 49.1314 345.284 46.7549 345.167 44.3055C342.98 44.5971 340.516 44.9179 337.775 45.2678C335.063 45.6177 331.958 46.0259 328.459 46.4925C326.01 46.8424 323.516 47.1486 320.98 47.411C314.739 54.2051 308.164 59.3663 301.253 62.8945C294.372 66.3936 287.461 68.1432 280.521 68.1432C277.43 68.1432 274.748 67.837 272.473 67.2247C270.228 66.6415 268.362 65.9854 266.875 65.2564C265.417 64.4983 264.323 63.7985 263.594 63.157C262.836 62.5155 262.428 62.1656 262.37 62.1072C262.078 61.8157 261.932 61.4366 261.932 60.97C261.932 60.5035 262.092 60.1098 262.413 59.7891C262.734 59.4683 263.113 59.308 263.55 59.308C264.046 59.308 264.454 59.4829 264.775 59.8328C264.833 59.8911 265.183 60.1973 265.825 60.7513C266.466 61.2762 267.414 61.8448 268.668 62.4572C269.951 63.0695 271.569 63.6235 273.523 64.1192C275.477 64.6149 277.795 64.8628 280.477 64.8628C284.151 64.8628 287.665 64.3671 291.018 63.3757C294.372 62.3843 297.536 61.1013 300.51 59.5267C303.513 57.9229 306.298 56.1004 308.864 54.0593C311.459 52.0182 313.806 49.9478 315.906 47.8484C313.836 48.0233 311.78 48.1546 309.739 48.242C307.698 48.3295 305.686 48.3732 303.703 48.3732C299.795 48.3732 296.078 48.1546 292.549 47.7172C289.021 47.2798 285.916 46.5508 283.233 45.5302C280.55 44.4805 278.407 43.0954 276.803 41.375C275.229 39.6546 274.441 37.5114 274.441 34.9454C274.441 33.7791 274.675 32.6127 275.141 31.4463C275.637 30.28 276.22 29.2302 276.891 28.2971C277.561 27.3349 278.261 26.5622 278.99 25.979C279.719 25.3666 280.346 25.0605 280.871 25.0605C281.279 25.0605 281.658 25.2062 282.008 25.4978C282.358 25.7894 282.533 26.1831 282.533 26.6788C282.533 26.9412 282.475 27.2037 282.358 27.4661C282.242 27.6994 282.067 27.8889 281.833 28.0347C281.775 28.093 281.527 28.2971 281.09 28.647C280.652 28.9969 280.186 29.4781 279.69 30.0904C279.194 30.6736 278.742 31.388 278.334 32.2336C277.926 33.0501 277.722 33.9394 277.722 34.9017C277.722 36.5638 278.29 38.0363 279.428 39.3193C280.594 40.5732 282.271 41.6375 284.458 42.5122C286.674 43.3579 289.386 43.9994 292.593 44.4368C295.801 44.8741 299.46 45.0928 303.571 45.0928C305.933 45.0928 308.426 45.0199 311.051 44.8741C313.675 44.7283 316.445 44.5097 319.361 44.2181C320.761 42.6726 322 41.2147 323.079 39.8442C324.158 38.4737 325.076 37.249 325.835 36.1701C327.088 34.3914 328.401 32.4961 329.771 30.4841C331.142 28.4721 332.497 26.4309 333.839 24.3606C335.209 22.2903 336.536 20.2492 337.819 18.2372C339.131 16.196 340.356 14.2861 341.493 12.5074C342.63 10.6995 343.651 9.06662 344.555 7.60866C345.459 6.12154 346.202 4.89685 346.785 3.93459C346.96 3.14729 347.223 2.43289 347.573 1.79139C347.923 1.12073 348.491 0.785398 349.279 0.785398C349.716 0.785398 350.139 0.974933 350.547 1.354C350.955 1.70391 351.159 2.15588 351.159 2.70991C351.159 3.11814 351.014 3.55552 350.722 4.02207C350.43 4.48862 350.153 4.88227 349.891 5.20302C349.803 5.75705 349.658 6.93799 349.454 8.74587C349.279 10.5537 349.089 12.7698 348.885 15.3942C348.71 17.9893 348.55 20.8615 348.404 24.0107C348.287 27.1308 348.229 30.2945 348.229 33.502C348.229 34.6976 348.229 35.8785 348.229 37.0449C348.229 38.2113 348.258 39.3922 348.316 40.5877C352.69 40.0337 355.883 39.6546 357.895 39.4505C359.907 39.2173 360.971 39.1006 361.088 39.1006C361.467 39.1006 361.832 39.261 362.182 39.5817C362.561 39.8733 362.75 40.267 362.75 40.7627C362.75 41.1709 362.604 41.5354 362.313 41.8562C362.05 42.1478 361.7 42.3227 361.263 42.381C360.738 42.4393 360.126 42.5122 359.426 42.5997C358.726 42.6872 357.866 42.7893 356.845 42.9059C355.825 43.0225 354.629 43.1683 353.259 43.3433C351.888 43.4891 350.285 43.6786 348.448 43.9119C348.535 46.3029 348.666 48.6065 348.841 50.8226C349.045 53.0096 349.279 55.0507 349.541 56.9461C349.833 58.8414 350.168 60.5472 350.547 62.0635C350.926 63.5798 351.363 64.8191 351.859 65.7813ZM328.021 43.2121C331.462 42.7455 334.582 42.3373 337.382 41.9874C340.21 41.6083 342.761 41.273 345.036 40.9814C345.007 39.7275 344.978 38.4737 344.948 37.2198C344.948 35.966 344.948 34.6976 344.948 33.4146C344.948 29.3031 345.021 25.3812 345.167 21.6488C345.313 17.8873 345.517 14.6214 345.779 11.8513C344.613 13.6884 343.316 15.7295 341.887 17.9748C340.487 20.1909 339.029 22.4653 337.513 24.798C335.997 27.1016 334.466 29.3906 332.92 31.665C331.375 33.9394 329.902 36.0681 328.503 38.0509C327.803 39.0423 327.088 40.0046 326.359 40.9376C325.63 41.8707 324.901 42.7893 324.172 43.6932C324.814 43.6349 325.441 43.562 326.053 43.4745C326.695 43.387 327.351 43.2995 328.021 43.2121ZM367.911 62.2822C368.378 61.2908 368.917 60.2265 369.53 59.0893C370.142 57.9229 370.798 56.7419 371.498 55.5464C372.198 54.3217 372.941 53.1116 373.729 51.9161C374.516 50.7206 375.332 49.5979 376.178 48.5482C377.024 47.5276 377.869 46.7987 378.715 46.3613C379.59 45.8947 380.406 45.6614 381.164 45.6614C381.922 45.6614 382.578 45.8218 383.132 46.1426C383.716 46.4342 384.182 46.8424 384.532 47.3673C384.911 47.8921 385.188 48.5045 385.363 49.2043C385.567 49.9041 385.669 50.6622 385.669 51.4787C385.669 52.1494 385.596 53.0533 385.451 54.1905C385.334 55.2986 385.276 56.4649 385.276 57.6896C385.276 58.3894 385.305 59.0893 385.363 59.7891C385.451 60.4597 385.582 61.0721 385.757 61.6261C385.961 62.151 386.252 62.5884 386.632 62.9383C387.011 63.259 387.506 63.4194 388.119 63.4194C388.818 63.4194 389.518 63.2299 390.218 62.8508C390.918 62.4426 391.603 61.9177 392.274 61.2762C392.944 60.6055 393.586 59.8766 394.198 59.0893C394.811 58.2728 395.365 57.4709 395.86 56.6836C396.356 55.8672 396.794 55.0945 397.173 54.3655C397.552 53.6073 397.858 52.9804 398.091 52.4847C398.383 51.814 398.893 51.4787 399.622 51.4787C400.118 51.4787 400.511 51.6537 400.803 52.0036C401.094 52.3535 401.24 52.7326 401.24 53.1408C401.24 53.3741 401.197 53.5928 401.109 53.7969C400.992 54.0301 400.759 54.5113 400.409 55.2402C400.089 55.9692 399.637 56.8148 399.053 57.7771C398.499 58.7394 397.843 59.7453 397.085 60.7951C396.327 61.8448 395.481 62.8216 394.548 63.7256C393.644 64.6004 392.653 65.3293 391.574 65.9125C390.524 66.4665 389.416 66.7436 388.25 66.7436C386.909 66.7436 385.83 66.4665 385.013 65.9125C384.197 65.3293 383.555 64.6004 383.089 63.7256C382.651 62.8508 382.345 61.874 382.17 60.7951C382.024 59.7162 381.951 58.6665 381.951 57.6459C381.951 57.121 381.966 56.567 381.995 55.9838C382.054 55.3715 382.112 54.7737 382.17 54.1905C382.228 53.6073 382.272 53.0679 382.301 52.5722C382.36 52.0473 382.389 51.6099 382.389 51.26C382.389 50.3561 382.258 49.7437 381.995 49.423C381.762 49.1022 381.485 48.9419 381.164 48.9419C380.698 48.9419 380.158 49.2189 379.546 49.7729C378.963 50.2978 378.336 50.9976 377.665 51.8724C377.024 52.7471 376.367 53.7385 375.697 54.8466C375.055 55.9255 374.428 57.0044 373.816 58.0833C373.204 59.1622 372.65 60.1973 372.154 61.1887C371.658 62.151 371.25 62.9529 370.929 63.5944C370.317 64.8191 369.69 65.6355 369.049 66.0437C368.436 66.4811 367.882 66.6998 367.386 66.6998C366.482 66.6998 365.783 66.3499 365.287 65.6501C364.82 64.9211 364.587 64.0463 364.587 63.0258V60.2702C364.587 54.7591 364.587 49.5105 364.587 44.5242C364.616 39.5088 364.689 34.8579 364.806 30.5715C364.952 26.256 365.17 22.3632 365.462 18.8933C365.783 15.3942 366.249 12.4199 366.862 9.97055C367.474 7.49202 368.247 5.58209 369.18 4.24077C370.142 2.89944 371.338 2.22878 372.766 2.22878C373.991 2.22878 375.026 2.56411 375.872 3.23477C376.717 3.90543 377.403 4.82395 377.927 5.99032C378.452 7.12753 378.831 8.46885 379.065 10.0143C379.298 11.5306 379.415 13.1343 379.415 14.8256C379.415 18.2664 379.094 21.6488 378.452 24.973C377.84 28.268 377.009 31.4901 375.959 34.6393C374.91 37.7885 373.685 40.8647 372.285 43.8681C370.886 46.8424 369.413 49.7437 367.868 52.5722C367.868 53.097 367.868 53.724 367.868 54.4529C367.868 55.1819 367.868 55.9109 367.868 56.6399C367.868 57.3689 367.868 58.0541 367.868 58.6956C367.868 59.3371 367.868 59.8474 367.868 60.2265L367.911 62.2822ZM367.911 46.1426C369.136 43.4599 370.244 40.8502 371.235 38.3133C372.256 35.7473 373.116 33.1959 373.816 30.659C374.545 28.1222 375.114 25.5562 375.522 22.961C375.93 20.3367 376.134 17.6103 376.134 14.7818C376.134 14.3153 376.105 13.5717 376.047 12.5511C376.018 11.5306 375.886 10.4954 375.653 9.44569C375.449 8.39595 375.114 7.47744 374.647 6.69014C374.21 5.90284 373.583 5.50919 372.766 5.50919C372.125 5.50919 371.571 5.94658 371.104 6.82136C370.638 7.66697 370.229 8.83334 369.88 10.3205C369.53 11.7784 369.238 13.4842 369.005 15.4379C368.771 17.3916 368.582 19.4619 368.436 21.6488C368.29 23.8358 368.174 26.081 368.086 28.3846C368.028 30.6882 367.984 32.9334 367.955 35.1204C367.926 37.2782 367.911 39.3047 367.911 41.2001C367.911 43.0954 367.911 44.7429 367.911 46.1426ZM408.239 62.1072C408.676 61.2325 409.23 60.1536 409.901 58.8706C410.6 57.5584 411.315 56.2462 412.044 54.9341C412.802 53.6219 413.531 52.3826 414.231 51.2163C414.96 50.0499 415.572 49.1605 416.068 48.5482C416.913 47.5276 417.788 46.7987 418.692 46.3613C419.596 45.9239 420.427 45.7052 421.185 45.7052C421.943 45.7052 422.585 45.8656 423.11 46.1863C423.664 46.5071 424.116 46.9444 424.466 47.4985C424.816 48.0233 425.078 48.6503 425.253 49.3792C425.428 50.0791 425.515 50.8372 425.515 51.6537C425.515 52.1202 425.486 52.7326 425.428 53.4907C425.399 54.2488 425.355 55.0653 425.297 55.9401C425.268 56.8148 425.224 57.7188 425.165 58.6519C425.136 59.585 425.107 60.4597 425.078 61.2762C425.515 60.4014 426.011 59.4392 426.565 58.3894C427.119 57.3106 427.673 56.2462 428.227 55.1965C428.81 54.1468 429.364 53.1699 429.889 52.266C430.414 51.3329 430.895 50.5748 431.333 49.9916C432.586 48.2712 433.753 47.1194 434.832 46.5362C435.94 45.953 436.917 45.6614 437.762 45.6614C438.754 45.6614 439.57 45.851 440.212 46.23C440.853 46.58 441.349 47.0465 441.699 47.6297C442.078 48.1837 442.34 48.8106 442.486 49.5105C442.632 50.2103 442.705 50.8809 442.705 51.5224C442.705 52.5139 442.632 53.549 442.486 54.6279C442.34 55.7068 442.267 56.9898 442.267 58.4769C442.267 59.0893 442.296 59.7016 442.355 60.314C442.413 60.9263 442.53 61.4657 442.705 61.9323C442.909 62.3988 443.215 62.7779 443.623 63.0695C444.031 63.3611 444.585 63.5069 445.285 63.5069C446.043 63.5069 446.787 63.3174 447.516 62.9383C448.245 62.5301 448.945 62.0052 449.615 61.3637C450.286 60.7222 450.913 59.9932 451.496 59.1767C452.109 58.3603 452.663 57.5438 453.158 56.7274C453.654 55.9109 454.091 55.1382 454.47 54.4092C454.85 53.6511 455.156 53.0096 455.389 52.4847C455.535 52.1639 455.739 51.9161 456.001 51.7411C456.264 51.5662 456.555 51.4787 456.876 51.4787C457.372 51.4787 457.765 51.6682 458.057 52.0473C458.378 52.3972 458.538 52.7763 458.538 53.1845C458.538 53.3886 458.494 53.5928 458.407 53.7969C458.29 54.0301 458.057 54.5258 457.707 55.284C457.357 56.013 456.891 56.8586 456.308 57.8208C455.724 58.7539 455.039 59.7453 454.252 60.7951C453.494 61.8448 452.648 62.8216 451.715 63.7256C450.782 64.6004 449.776 65.3293 448.697 65.9125C447.618 66.4665 446.481 66.7436 445.285 66.7436C444.002 66.7436 442.953 66.5103 442.136 66.0437C441.349 65.6064 440.707 65.0086 440.212 64.2504C439.745 63.4923 439.424 62.6175 439.249 61.6261C439.074 60.6347 438.987 59.5996 438.987 58.5207C438.987 57.0919 439.06 55.7797 439.206 54.5842C439.351 53.3595 439.424 52.4118 439.424 51.7411C439.424 51.0122 439.351 50.4581 439.206 50.0791C439.089 49.7 438.929 49.4376 438.724 49.2918C438.55 49.1168 438.375 49.0293 438.2 49.0293C438.025 49.0002 437.893 48.9856 437.806 48.9856C437.106 48.9856 436.363 49.3792 435.575 50.1665C434.817 50.9247 434.03 51.9453 433.213 53.2283C432.397 54.5113 431.551 55.9692 430.677 57.6021C429.831 59.2351 428.971 60.8971 428.096 62.5884C427.6 63.5215 427.177 64.2942 426.828 64.9065C426.507 65.5189 426.186 66 425.865 66.3499C425.574 66.6998 425.282 66.9477 424.99 67.0935C424.699 67.2393 424.378 67.3122 424.028 67.3122C423.27 67.3122 422.687 67.0497 422.279 66.5249C421.9 66 421.71 65.3148 421.71 64.4691C421.71 64.0318 421.725 63.4486 421.754 62.7196C421.783 61.9906 421.812 61.1887 421.841 60.314C421.87 59.4392 421.914 58.5352 421.973 57.6021C422.031 56.669 422.075 55.7797 422.104 54.9341C422.133 54.0593 422.162 53.2866 422.191 52.6159C422.22 51.9453 422.235 51.435 422.235 51.0851C422.235 50.3269 422.104 49.7875 421.841 49.4667C421.579 49.1168 421.273 48.9419 420.923 48.9419C420.602 48.9419 420.238 49.0585 419.829 49.2918C419.45 49.525 418.998 49.977 418.473 50.6477C418.065 51.1725 417.54 51.9453 416.899 52.9658C416.286 53.9572 415.63 55.0653 414.931 56.29C414.231 57.5147 413.531 58.7685 412.831 60.0515C412.16 61.3345 411.577 62.4863 411.082 63.5069C410.469 64.7316 409.857 65.5626 409.245 66C408.632 66.4665 408.034 66.6998 407.451 66.6998C406.606 66.6998 405.979 66.452 405.57 65.9563C405.162 65.4314 404.958 64.7462 404.958 63.9005C404.958 63.8131 404.973 63.2882 405.002 62.3259C405.06 61.3637 405.118 60.1973 405.177 58.8268C405.235 57.4272 405.293 55.9401 405.352 54.3655C405.439 52.7909 405.512 51.3183 405.57 49.9478C405.6 49.2189 405.57 48.5482 405.483 47.9359C405.396 47.3235 405.279 46.959 405.133 46.8424C404.9 46.9007 404.433 47.4402 403.733 48.4607C403.063 49.4813 402.203 51.26 401.153 53.7969C401.007 54.1176 400.788 54.3655 400.497 54.5404C400.205 54.7154 399.899 54.8029 399.578 54.8029C399.083 54.8029 398.689 54.6425 398.397 54.3217C398.106 53.9718 397.96 53.5782 397.96 53.1408C397.96 52.9367 398.004 52.718 398.091 52.4847C399.403 49.3647 400.657 47.0757 401.853 45.6177C403.048 44.1306 404.215 43.387 405.352 43.387C406.022 43.387 406.576 43.5474 407.014 43.8681C407.48 44.1597 407.845 44.5534 408.107 45.0491C408.37 45.5156 408.559 46.0551 408.676 46.6674C408.793 47.2798 408.851 47.8775 408.851 48.4607C408.851 51.0559 408.778 53.4324 408.632 55.5902C408.516 57.7479 408.384 59.9203 408.239 62.1072ZM460.681 61.1887C461.294 62.0343 462.081 62.7196 463.043 63.2445C464.006 63.7402 465.186 63.988 466.586 63.988C468.015 63.988 469.312 63.6527 470.479 62.982C471.645 62.2822 472.71 61.3783 473.672 60.2702C474.634 59.1622 475.494 57.9229 476.252 56.5524C477.011 55.1819 477.696 53.8114 478.308 52.441C478.454 52.1202 478.658 51.8869 478.92 51.7411C479.183 51.5662 479.474 51.4787 479.795 51.4787C480.291 51.4787 480.685 51.6537 480.976 52.0036C481.297 52.3535 481.457 52.7326 481.457 53.1408C481.457 53.2866 481.443 53.4178 481.414 53.5344C481.384 53.6219 481.341 53.724 481.282 53.8406C479.27 58.2728 477.069 61.6115 474.678 63.8568C472.316 66.1021 469.633 67.2538 466.63 67.3122C464.705 67.3122 463.043 66.9331 461.644 66.175C460.244 65.446 459.092 64.4983 458.188 63.3319C457.284 62.1364 456.614 60.7951 456.176 59.308C455.739 57.8208 455.52 56.3337 455.52 54.8466C455.52 53.3595 455.695 51.989 456.045 50.7351C456.424 49.4813 456.949 48.3878 457.62 47.4547C458.319 46.5216 459.136 45.7927 460.069 45.2678C461.031 44.7429 462.081 44.4805 463.218 44.4805C463.889 44.4805 464.545 44.6263 465.186 44.9179C465.857 45.1803 466.455 45.574 466.98 46.0988C467.505 46.5945 467.927 47.2069 468.248 47.9359C468.569 48.6648 468.729 49.4959 468.729 50.429C468.729 51.6245 468.525 52.7471 468.117 53.7969C467.709 54.8466 467.14 55.8234 466.411 56.7274C465.711 57.6313 464.866 58.4623 463.874 59.2205C462.883 59.9786 461.819 60.6347 460.681 61.1887ZM459.369 58.3457C460.273 57.9666 461.09 57.4855 461.819 56.9023C462.577 56.3191 463.218 55.6776 463.743 54.9778C464.268 54.278 464.676 53.549 464.968 52.7909C465.259 52.0036 465.405 51.2163 465.405 50.429C465.405 49.5542 465.186 48.8981 464.749 48.4607C464.312 47.9942 463.801 47.7609 463.218 47.7609C462.431 47.7609 461.76 47.9796 461.206 48.417C460.652 48.8544 460.2 49.423 459.85 50.1228C459.5 50.8226 459.238 51.6099 459.063 52.4847C458.917 53.3303 458.844 54.1759 458.844 55.0216C458.844 55.5464 458.888 56.1004 458.976 56.6836C459.092 57.2668 459.223 57.8208 459.369 58.3457ZM495.323 53.272C496.751 60.0078 498.822 63.3757 501.533 63.3757C502.583 63.3757 503.589 62.9966 504.551 62.2385C505.514 61.4512 506.403 60.5035 507.219 59.3954C508.065 58.2582 508.809 57.0627 509.45 55.8089C510.092 54.555 510.617 53.4615 511.025 52.5284C511.316 51.8286 511.827 51.4787 512.556 51.4787C513.022 51.4787 513.416 51.6537 513.737 52.0036C514.057 52.3535 514.218 52.7326 514.218 53.1408C514.218 53.3741 514.174 53.5782 514.086 53.7531C513.882 54.2488 513.576 54.9195 513.168 55.7651C512.789 56.5816 512.308 57.4709 511.725 58.4332C511.171 59.3663 510.544 60.3285 509.844 61.3199C509.144 62.3114 508.371 63.2007 507.526 63.988C506.68 64.7753 505.776 65.4314 504.814 65.9563C503.881 66.452 502.889 66.6998 501.84 66.6998C499.886 66.6998 498.209 66.0292 496.81 64.6878C495.41 63.3174 494.2 61.0721 493.179 57.9521C491.78 60.9263 490.365 63.0841 488.937 64.4254C487.508 65.7667 485.962 66.4374 484.3 66.4374C483.426 66.4374 482.58 66.2916 481.763 66C480.947 65.7376 480.233 65.2856 479.62 64.6441C479.008 64.0026 478.512 63.1861 478.133 62.1947C477.754 61.1741 477.565 59.9349 477.565 58.4769C477.565 56.4649 477.914 54.6133 478.614 52.9221C479.314 51.2309 480.218 49.7875 481.326 48.5919C482.434 47.3673 483.659 46.4196 485 45.7489C486.371 45.0783 487.727 44.7429 489.068 44.7429C489.505 44.7429 489.884 44.9033 490.205 45.2241C490.526 45.5156 490.686 45.8947 490.686 46.3613C490.686 46.7695 490.555 47.134 490.293 47.4547C490.03 47.7755 489.68 47.965 489.243 48.0233C488.368 48.14 487.435 48.417 486.444 48.8544C485.452 49.2918 484.534 49.9333 483.688 50.7789C482.872 51.5953 482.186 52.6451 481.632 53.9281C481.107 55.2111 480.845 56.7419 480.845 58.5207C480.845 59.9786 481.137 61.1158 481.72 61.9323C482.332 62.7487 483.207 63.157 484.344 63.157C484.811 63.157 485.306 63.0403 485.831 62.8071C486.356 62.5446 486.91 62.0489 487.493 61.3199C488.106 60.591 488.762 59.5558 489.462 58.2145C490.191 56.8732 490.992 55.109 491.867 52.9221C491.371 50.3561 490.919 47.3964 490.511 44.0431C490.103 40.6898 489.899 36.9428 489.899 32.8022C489.899 30.9944 489.957 29.1136 490.074 27.1599C490.191 25.1771 490.38 23.2526 490.642 21.3864C490.905 19.491 491.255 17.6977 491.692 16.0065C492.13 14.3153 492.654 12.8282 493.267 11.5452C493.908 10.2621 494.652 9.25615 495.497 8.52717C496.343 7.76903 497.305 7.38996 498.384 7.38996C499.347 7.38996 500.163 7.65239 500.834 8.17726C501.504 8.70213 502.044 9.43111 502.452 10.3642C502.889 11.2973 503.21 12.4199 503.414 13.7321C503.618 15.0443 503.72 16.4876 503.72 18.0622C503.72 21.4447 503.429 24.8272 502.846 28.2096C502.262 31.5921 501.533 34.8288 500.659 37.9197C499.813 41.0105 498.909 43.8681 497.947 46.4925C496.985 49.1168 496.11 51.3766 495.323 53.272ZM500.44 18.0185C500.44 17.2895 500.411 16.5022 500.352 15.6566C500.323 14.811 500.221 14.0237 500.046 13.2947C499.901 12.5366 499.696 11.9096 499.434 11.4139C499.172 10.9182 498.822 10.6704 498.384 10.6704C497.655 10.6704 496.97 11.3119 496.329 12.5949C495.716 13.8779 495.177 15.5691 494.71 17.6686C494.244 19.7389 493.865 22.1008 493.573 24.7543C493.311 27.3786 493.179 30.0321 493.179 32.7147C493.179 35.2808 493.281 37.8468 493.486 40.4128C493.69 42.9788 493.923 45.2678 494.185 47.2798C495.031 45.0345 495.833 42.7309 496.591 40.369C497.349 37.978 498.005 35.5432 498.559 33.0647C499.142 30.5861 499.594 28.093 499.915 25.5853C500.265 23.0485 500.44 20.5262 500.44 18.0185Z" fill="white"/>
</svg>
