<svg width="36" height="39" viewBox="0 0 36 39" fill="none" xmlns="http://www.w3.org/2000/svg">
<g clip-path="url(#clip0_773_247)">
<path d="M31.2192 5.68506L21.6006 30.6925H22.2067L31.2192 5.68506Z" fill="#DEE0EA"/>
<path d="M31.3037 1.43848C31.3037 1.43848 30.7716 4.77394 31.2193 5.68495C31.2193 5.68495 32.3538 3.78077 31.3037 1.43848Z" fill="#DEE0EA"/>
<path d="M28.8789 2.34668C28.8789 2.34668 29.8032 5.16262 30.5959 5.70804C30.5959 5.70804 30.826 3.78684 28.8789 2.34668Z" fill="#DEE0EA"/>
<path d="M33.8753 0.634033C33.8753 0.634033 31.1556 4.19965 31.3672 5.54287C31.3672 5.54287 34.2586 4.02574 33.8753 0.634033Z" fill="#DEE0EA"/>
<path d="M27.6533 3.55591C27.6533 3.55591 28.5532 7.15927 28.8655 8.17316C28.9395 8.41146 29.0136 8.52025 29.0876 8.53949C29.3096 8.59647 29.5175 7.84087 29.5656 7.31691C29.6315 6.61903 29.2837 4.4536 27.6533 3.55591Z" fill="#DEE0EA"/>
<path d="M29.1387 8.48178C29.1387 8.48178 29.1305 8.46328 29.132 8.49289C29.1468 8.81333 29.2408 10.759 29.1653 11.0883C29.0824 11.4487 29.3792 10.628 29.3792 10.628L29.1387 8.48178Z" fill="#DEE0EA"/>
<path d="M30.596 5.67389C30.596 5.67389 30.5635 5.65612 30.5664 5.66722C30.6486 5.97953 30.5368 7.26058 30.4613 7.59139C30.3784 7.95106 30.6093 7.3072 30.6093 7.3072L30.596 5.67389Z" fill="#DEE0EA"/>
<path d="M26.8359 4.96411C26.8359 4.96411 27.0335 9.65833 27.5708 10.7366C28.2554 12.1102 28.6432 9.6191 28.5729 9.1536C28.5026 8.6881 28.3405 6.0113 26.8359 4.96411Z" fill="#DEE0EA"/>
<path d="M30.596 5.67389C30.596 5.67389 30.5635 5.65612 30.5664 5.66722C30.6486 5.97953 30.5368 7.26058 30.4613 7.59139C30.3784 7.95106 30.6093 7.3072 30.6093 7.3072L30.596 5.67389Z" fill="#DEE0EA"/>
<path d="M28.0203 10.9824C28.0203 10.9824 28.0114 10.9609 28.0129 10.9942C28.0269 11.3517 28.1172 13.5201 28.0402 13.8871C27.9566 14.289 28.2563 13.3743 28.2563 13.3743L28.0203 10.9824Z" fill="#DEE0EA"/>
<path d="M24.1143 6.76245C24.1143 6.76245 25.4464 12.1412 26.2427 13.2972C27.2514 14.7684 27.3394 11.7431 27.1567 11.2169C26.9739 10.6907 25.8527 7.72231 24.1143 6.76245Z" fill="#DEE0EA"/>
<path d="M26.7955 13.6422C26.7955 13.6422 26.771 13.5512 26.7725 13.5882C26.7881 13.9871 27.073 16.1577 26.9864 16.5677C26.8924 17.0154 27.2269 16.0741 27.2269 16.0741L26.7955 13.6422Z" fill="#DEE0EA"/>
<path d="M22.5498 9.23071C22.5498 9.23071 24.326 14.8204 25.1193 16.0519C26.1258 17.6186 26.0681 14.2261 25.7898 13.2914C25.5041 12.3345 24.2875 10.2535 22.5498 9.23071Z" fill="#DEE0EA"/>
<path d="M25.6705 16.4159C25.6705 16.4159 25.646 16.319 25.6475 16.3582C25.6631 16.7838 25.9436 19.0965 25.8585 19.5323C25.7637 20.0097 26.099 19.0062 26.099 19.0062L25.6705 16.4159Z" fill="#DEE0EA"/>
<path d="M21.4766 11.9497C21.4766 11.9497 23.2527 17.5394 24.0453 18.7709C25.0525 20.3383 24.9941 16.9451 24.7158 16.0112C24.4309 15.0535 23.2142 12.9732 21.4766 11.9497Z" fill="#DEE0EA"/>
<path d="M24.597 19.1386C24.597 19.1386 24.5718 19.0417 24.5733 19.0809C24.5888 19.5057 24.8693 21.8931 24.7835 22.3312C24.6888 22.8086 25.0691 21.7118 25.0691 21.7118L24.597 19.1386Z" fill="#DEE0EA"/>
<path d="M19.6504 14.3186C19.6504 14.3186 22.003 20.1133 22.7942 21.344C23.8007 22.9115 23.5764 19.0631 23.2982 18.1284C23.0132 17.1715 21.3881 15.3414 19.6504 14.3186Z" fill="#DEE0EA"/>
<path d="M23.2329 21.6844C23.2329 21.6844 23.2144 21.6318 23.2159 21.6792C23.23 22.1906 23.6141 25.0339 23.5253 25.5594C23.429 26.1344 23.8768 24.8297 23.8768 24.8297L23.2329 21.6844Z" fill="#DEE0EA"/>
<path d="M17.2969 17.2849C17.2969 17.2849 18.2523 19.3756 19.4756 21.1332C20.2978 22.3173 21.3998 23.2432 21.8142 23.6783C23.1234 25.057 22.0096 21.4544 21.5471 20.5819C21.0727 19.6901 19.2173 18.0139 17.2969 17.2849Z" fill="#DEE0EA"/>
<path d="M22.3286 23.921C22.3286 23.921 22.3101 23.8684 22.3116 23.9158C22.3257 24.4279 22.7334 27.4999 22.6195 28.0224C22.5928 28.146 22.9969 27.0899 22.9969 27.0899L22.3286 23.921Z" fill="#DEE0EA"/>
<path d="M16.1904 20.1687C16.1904 20.1687 17.2628 22.5221 18.6245 24.5069C19.5392 25.8391 20.7588 26.8922 21.2147 27.3836C22.6652 28.9421 21.4005 24.8933 20.8832 23.9105C20.3548 22.9032 18.3026 21.0042 16.1904 20.1687Z" fill="#DEE0EA"/>
<path d="M13.8486 24.9318C13.8486 24.9318 16.3123 26.3823 18.0522 27.7485C20.094 29.3514 20.4559 29.5335 21.0635 29.7311C22.9877 30.355 20.1014 26.46 19.2296 25.8931C18.3371 25.3122 16.0311 24.6876 13.8486 24.9318Z" fill="#DEE0EA"/>
<path d="M21.818 27.7589C21.8093 27.7218 21.7977 27.6854 21.7832 27.6501C21.8017 27.9166 22.1999 29.134 22.0911 29.4063C22.0652 29.4707 22.2946 28.9334 22.2946 28.9334L21.818 27.7589Z" fill="#DEE0EA"/>
<path d="M21.4507 29.6045C21.4507 29.6045 21.4129 29.5394 21.4151 29.5512C21.4359 29.683 21.8458 30.2846 21.7393 30.4186C21.7141 30.4504 21.9391 30.1855 21.9391 30.1855L21.4507 29.6045Z" fill="#DEE0EA"/>
<path d="M33.3253 2.77148C33.3253 2.77148 31.732 5.79982 30.9697 6.46143C30.9697 6.46143 31.4241 4.50101 33.3253 2.77148Z" fill="#DEE0EA"/>
<path d="M34.1493 4.23462C34.1493 4.23462 32.0468 6.40596 31.3008 6.65536C31.3008 6.65536 32.2606 4.9325 34.1493 4.23462Z" fill="#DEE0EA"/>
<path d="M32.3623 1.35718C32.3623 1.35718 31.8442 5.19662 30.9688 6.29709C30.9688 6.29709 30.2324 4.1783 32.3623 1.35718Z" fill="#DEE0EA"/>
<path d="M34.1404 5.62061C34.1404 5.62061 31.6064 8.47947 30.8612 9.26689C30.6858 9.45191 30.5814 9.52517 30.5296 9.52073C30.3742 9.50667 30.688 8.79695 30.9574 8.33145C31.317 7.71128 32.7343 5.93883 34.1404 5.62061Z" fill="#DEE0EA"/>
<path d="M30.5361 9.45924C30.5361 9.45924 30.5516 9.44518 30.5361 9.47034C30.3466 9.74268 29.1943 11.3945 29.05 11.7016C28.8916 12.0361 29.1921 11.2443 29.1921 11.2443L30.5361 9.45924Z" fill="#DEE0EA"/>
<path d="M31.3199 6.62485C31.3199 6.62485 31.348 6.61893 31.3398 6.62855C31.1178 6.87425 30.4518 8.01173 30.3104 8.31737C30.152 8.65188 30.3889 8.03097 30.3889 8.03097L31.3199 6.62485Z" fill="#DEE0EA"/>
<path d="M33.7925 7.06519C33.7925 7.06519 31.0284 11.0615 30.1218 11.8438C28.9673 12.8384 30.1625 10.579 30.4645 10.1971C30.7664 9.81526 32.3731 7.54845 33.7925 7.06519Z" fill="#DEE0EA"/>
<path d="M31.3199 6.62485C31.3199 6.62485 31.348 6.61893 31.3398 6.62855C31.1178 6.87425 30.4518 8.01173 30.3104 8.31737C30.152 8.65188 30.3889 8.03097 30.3889 8.03097L31.3199 6.62485Z" fill="#DEE0EA"/>
<path d="M29.7365 11.9282C29.7365 11.9282 29.7528 11.9119 29.7365 11.9407C29.5263 12.2449 28.2505 14.0914 28.0847 14.4303C27.9041 14.8003 28.2564 13.9263 28.2564 13.9263L29.7365 11.9282Z" fill="#DEE0EA"/>
<path d="M34.2793 9.37866C34.2793 9.37866 30.5005 13.6488 29.4097 14.4244C28.0213 15.4124 29.6842 12.7755 30.0816 12.373C30.4791 11.9704 32.7769 9.72131 34.2793 9.37866Z" fill="#DEE0EA"/>
<path d="M28.9081 14.5658C28.9081 14.5658 28.9732 14.4918 28.951 14.5258C28.7164 14.8655 27.3325 16.6594 27.1475 17.0376C26.9462 17.4505 27.2955 16.544 27.2955 16.544L28.9081 14.5658Z" fill="#DEE0EA"/>
<path d="M33.746 11.9475C33.746 11.9475 29.6016 16.2754 28.4716 17.1168C27.0299 18.1877 28.9807 15.2756 29.6631 14.5466C30.3609 13.7999 32.2089 12.3457 33.746 11.9475Z" fill="#DEE0EA"/>
<path d="M27.9597 17.2796C27.9597 17.2796 28.0278 17.2055 28.0049 17.2366C27.7562 17.5993 26.2931 19.516 26.0933 19.9171C25.8757 20.3553 26.2583 19.3954 26.2583 19.3954L27.9597 17.2796Z" fill="#DEE0EA"/>
<path d="M32.8004 14.5955C32.8004 14.5955 28.6561 18.9233 27.5253 19.7648C26.0836 20.8357 28.0344 17.9235 28.7168 17.1946C29.4154 16.4478 31.2633 14.9929 32.8004 14.5955Z" fill="#DEE0EA"/>
<path d="M27.0132 19.9275C27.0132 19.9275 27.082 19.8535 27.0591 19.8846C26.8097 20.2472 25.3044 22.2306 25.1046 22.6317C24.887 23.0698 25.2977 22.0167 25.2977 22.0167L27.0132 19.9275Z" fill="#DEE0EA"/>
<path d="M32.4671 17.1516C32.4671 17.1516 27.8928 21.495 26.7619 22.3365C25.3203 23.4074 27.6211 20.1481 28.3027 19.4199C28.9991 18.6732 30.9307 17.5483 32.4671 17.1516Z" fill="#DEE0EA"/>
<path d="M26.3256 22.5073C26.3256 22.5073 26.3649 22.4666 26.3375 22.5073C26.0414 22.9455 24.2209 25.2915 23.9693 25.771C23.6977 26.2935 24.1913 25.0421 24.1913 25.0421L26.3256 22.5073Z" fill="#DEE0EA"/>
<path d="M32.0903 20.3701C32.0903 20.3701 30.3808 21.908 28.7104 23.0847C27.5885 23.8751 26.4547 24.3679 25.9811 24.6277C24.4795 25.4506 27.1311 22.6532 27.8801 22.0293C28.6446 21.3899 30.6161 20.4626 32.0903 20.3701Z" fill="#DEE0EA"/>
<path d="M25.5587 24.6906C25.5587 24.6906 25.5986 24.6506 25.5713 24.6906C25.2752 25.1287 23.3118 27.6664 23.0787 28.1489C23.024 28.2636 23.3977 27.2386 23.3977 27.2386L25.5587 24.6906Z" fill="#DEE0EA"/>
<path d="M31.0658 23.1697C31.0658 23.1697 29.1416 24.9007 27.27 26.2335C26.0119 27.1283 24.7442 27.6952 24.2128 27.9912C22.5314 28.9303 25.519 25.7895 26.359 25.0857C27.2227 24.3649 29.4258 23.2984 31.0658 23.1697Z" fill="#DEE0EA"/>
<path d="M29.664 27.9373C29.664 27.9373 27.4853 28.4998 25.7528 29.1954C23.7206 30.0095 23.4179 30.0643 22.9709 30.0643C21.5566 30.0643 25.3524 27.5103 26.1531 27.2646C26.9739 27.0093 28.5983 27.1151 29.664 27.9373Z" fill="#DEE0EA"/>
<path d="M23.6706 28.1467C23.6706 28.1467 23.7661 28.0423 23.7505 28.063C23.5899 28.285 22.6819 29.2271 22.5879 29.4928C22.5657 29.555 22.7425 29.0273 22.7425 29.0273L23.6706 28.1467Z" fill="#DEE0EA"/>
<path d="M22.8286 29.8437C22.8286 29.8437 22.8863 29.797 22.8789 29.8074C22.7924 29.9147 22.2262 30.3195 22.2129 30.4653C22.2129 30.5001 22.2351 30.2078 22.2351 30.2078L22.8286 29.8437Z" fill="#DEE0EA"/>
<path d="M3.47266 11.0857L13.4413 36.0931H12.8137L3.47266 11.0857Z" fill="#DEE0EA"/>
<path d="M3.38504 6.83911C3.38504 6.83911 3.93639 10.1746 3.47237 11.0856C3.47237 11.0856 2.29641 9.18141 3.38504 6.83911Z" fill="#DEE0EA"/>
<path d="M5.89793 7.74731C5.89793 7.74731 4.93955 10.5633 4.12178 11.1087C4.11808 11.1087 3.87978 9.18748 5.89793 7.74731Z" fill="#DEE0EA"/>
<path d="M0.719897 6.03467C0.719897 6.03467 3.53805 9.60029 3.319 10.9435C3.319 10.9435 0.322484 9.42637 0.719897 6.03467Z" fill="#DEE0EA"/>
<path d="M7.16697 8.95654C7.16697 8.95654 6.23376 12.5599 5.90887 13.5738C5.83486 13.8121 5.75346 13.9209 5.67575 13.9401C5.44411 13.9971 5.23171 13.2415 5.18065 12.7175C5.117 12.0197 5.47741 9.8535 7.16697 8.95654Z" fill="#DEE0EA"/>
<path d="M5.62928 13.8824C5.62928 13.8824 5.63816 13.8639 5.63668 13.8935C5.62114 14.214 5.52345 16.1588 5.6019 16.4889C5.68849 16.8493 5.37988 16.0286 5.37988 16.0286L5.62928 13.8824Z" fill="#DEE0EA"/>
<path d="M4.11782 11.0746C4.11782 11.0746 4.1526 11.0561 4.1489 11.0679C4.06379 11.3802 4.17924 12.6613 4.25769 12.9921C4.34353 13.3525 4.10449 12.7086 4.10449 12.7086L4.11782 11.0746Z" fill="#DEE0EA"/>
<path d="M8.01534 10.3647C8.01534 10.3647 7.81108 15.0582 7.25381 16.1387C6.54409 17.5123 6.14372 15.0212 6.21772 14.555C6.29173 14.0887 6.45529 11.4119 8.01534 10.3647Z" fill="#DEE0EA"/>
<path d="M4.11782 11.0746C4.11782 11.0746 4.1526 11.0561 4.1489 11.0679C4.06379 11.3802 4.17924 12.6613 4.25769 12.9921C4.34353 13.3525 4.10449 12.7086 4.10449 12.7086L4.11782 11.0746Z" fill="#DEE0EA"/>
<path d="M6.78473 16.383C6.78473 16.383 6.79361 16.3616 6.79287 16.3949C6.77807 16.7523 6.68408 18.92 6.76401 19.2878C6.8506 19.6896 6.54199 18.7749 6.54199 18.7749L6.78473 16.383Z" fill="#DEE0EA"/>
<path d="M10.8352 12.1631C10.8352 12.1631 9.45059 17.5419 8.62912 18.6978C7.58415 20.1691 7.49312 17.1437 7.68258 16.6175C7.87203 16.0913 9.03319 13.1229 10.8352 12.1631Z" fill="#DEE0EA"/>
<path d="M8.05661 19.0429C8.05661 19.0429 8.08251 18.9518 8.08103 18.9888C8.06401 19.3877 7.76947 21.5583 7.85902 21.9683C7.9567 22.4161 7.61035 21.4747 7.61035 21.4747L8.05661 19.0429Z" fill="#DEE0EA"/>
<path d="M12.4563 14.6313C12.4563 14.6313 10.6143 20.221 9.7921 21.4525C8.74862 23.0192 8.80856 19.6268 9.09718 18.6921C9.39469 17.7352 10.6558 15.6541 12.4563 14.6313Z" fill="#DEE0EA"/>
<path d="M9.22259 21.8195C9.22259 21.8195 9.2485 21.7226 9.24702 21.7618C9.23074 22.1873 8.93841 24.5 9.0287 24.9359C9.12639 25.4133 8.7793 24.4097 8.7793 24.4097L9.22259 21.8195Z" fill="#DEE0EA"/>
<path d="M13.5693 17.3525C13.5693 17.3525 11.7265 22.9422 10.9051 24.1737C9.86157 25.7411 9.92226 22.348 10.2101 21.414C10.5069 20.4541 11.7687 18.3738 13.5693 17.3525Z" fill="#DEE0EA"/>
<path d="M10.3356 24.5392C10.3356 24.5392 10.3608 24.4423 10.3593 24.4815C10.343 24.9063 10.0522 27.2937 10.1417 27.7319C10.2402 28.2092 9.8457 27.1124 9.8457 27.1124L10.3356 24.5392Z" fill="#DEE0EA"/>
<path d="M15.4619 19.7207C15.4619 19.7207 13.0242 25.5146 12.2056 26.7461C11.1622 28.3136 11.3916 24.4652 11.6832 23.5305C11.977 22.5722 13.6613 20.742 15.4619 19.7207Z" fill="#DEE0EA"/>
<path d="M11.7488 27.085C11.7488 27.085 11.7681 27.0325 11.7666 27.0798C11.7525 27.5912 11.3544 30.4338 11.4454 30.96C11.5453 31.535 11.082 30.2303 11.082 30.2303L11.7488 27.085Z" fill="#DEE0EA"/>
<path d="M17.9014 22.6853C17.9014 22.6853 16.9112 24.776 15.6428 26.5336C14.7917 27.7177 13.6446 28.6435 13.2198 29.0787C11.8625 30.4574 13.017 26.8548 13.4966 25.9823C13.988 25.0905 15.9107 23.4143 17.9014 22.6853Z" fill="#DEE0EA"/>
<path d="M12.6856 29.3216C12.6856 29.3216 12.7041 29.2691 12.7026 29.3164C12.6886 29.8285 12.266 32.9005 12.3837 33.423C12.4118 33.5466 11.9922 32.4905 11.9922 32.4905L12.6856 29.3216Z" fill="#DEE0EA"/>
<path d="M19.0471 25.5671C19.0471 25.5671 17.937 27.9205 16.5242 29.9054C15.5769 31.2375 14.3129 32.2906 13.8385 32.782C12.3347 34.3406 13.6454 30.2917 14.1819 29.3089C14.731 28.3054 16.858 26.4064 19.0471 25.5671Z" fill="#DEE0EA"/>
<path d="M21.4747 30.3324C21.4747 30.3324 18.9222 31.7829 17.1179 33.1491C15.0021 34.7521 14.6276 34.9341 13.9978 35.1317C11.9997 35.7556 14.9962 31.8607 15.8983 31.2938C16.8234 30.7128 19.2123 30.0882 21.4747 30.3324Z" fill="#DEE0EA"/>
<path d="M13.2141 33.1587C13.2141 33.1587 13.2518 33.0262 13.2503 33.0506C13.2311 33.317 12.8182 34.5307 12.9314 34.8068C12.958 34.8712 12.7197 34.3339 12.7197 34.3339L13.2141 33.1587Z" fill="#DEE0EA"/>
<path d="M13.596 35.0052C13.596 35.0052 13.6345 34.94 13.633 34.9519C13.6108 35.0836 13.189 35.6853 13.2971 35.8192C13.323 35.8511 13.0898 35.5861 13.0898 35.5861L13.596 35.0052Z" fill="#DEE0EA"/>
<path d="M1.29004 8.17578C1.29004 8.17578 2.94112 11.2041 3.73224 11.8657C3.73076 11.862 3.26304 9.90013 1.29004 8.17578Z" fill="#DEE0EA"/>
<path d="M0.435547 9.63501C0.435547 9.63501 2.61429 11.8064 3.38765 12.0558C3.38765 12.0558 2.39301 10.3329 0.435547 9.63501Z" fill="#DEE0EA"/>
<path d="M2.28809 6.75781C2.28809 6.75781 2.82389 10.5973 3.73195 11.6977C3.73195 11.6977 4.49495 9.58189 2.28809 6.75781Z" fill="#DEE0EA"/>
<path d="M0.444336 11.0212C0.444336 11.0212 3.07082 13.8801 3.84344 14.6675C4.02476 14.8525 4.13281 14.9258 4.18683 14.9214C4.34817 14.9073 4.02254 14.1976 3.74279 13.7321C3.37054 13.1119 1.90226 11.3395 0.444336 11.0212Z" fill="#DEE0EA"/>
<path d="M4.18074 14.8578C4.18074 14.8578 4.16519 14.8438 4.18074 14.8697C4.37759 15.142 5.57131 16.7938 5.72155 17.1009C5.8851 17.4355 5.57353 16.6428 5.57353 16.6428L4.18074 14.8578Z" fill="#DEE0EA"/>
<path d="M3.37102 12.024C3.37102 12.024 3.34141 12.0181 3.35029 12.0277C3.58045 12.2734 4.26724 13.4109 4.41747 13.7165C4.58102 14.051 4.33606 13.4301 4.33606 13.4301L3.37102 12.024Z" fill="#DEE0EA"/>
<path d="M0.801758 12.468C0.801758 12.468 3.66654 16.4644 4.60642 17.2444C5.8031 18.239 4.56424 15.9796 4.25119 15.5977C3.93815 15.2159 2.2767 12.9491 0.801758 12.468Z" fill="#DEE0EA"/>
<path d="M3.37102 12.024C3.37102 12.024 3.34141 12.0181 3.35029 12.0277C3.58045 12.2734 4.26724 13.4109 4.41747 13.7165C4.58102 14.051 4.33606 13.4301 4.33606 13.4301L3.37102 12.024Z" fill="#DEE0EA"/>
<path d="M5.00854 17.3289C5.00854 17.3289 4.99152 17.3126 5.00854 17.3407C5.22612 17.6457 6.54861 19.4921 6.72031 19.8311C6.90754 20.2011 6.54269 19.3271 6.54269 19.3271L5.00854 17.3289Z" fill="#DEE0EA"/>
<path d="M0.301758 14.7793C0.301758 14.7793 4.21816 19.0487 5.34824 19.825C6.78692 20.813 5.06332 18.1762 4.6511 17.7736C4.23889 17.371 1.85811 15.1219 0.301758 14.7793Z" fill="#DEE0EA"/>
<path d="M5.86604 19.9686C5.86604 19.9686 5.79869 19.8946 5.8209 19.9286C6.06364 20.2683 7.49862 22.0622 7.68955 22.4404C7.89899 22.8534 7.53784 21.9468 7.53784 21.9468L5.86604 19.9686Z" fill="#DEE0EA"/>
<path d="M0.854492 17.3481C0.854492 17.3481 5.14685 21.676 6.32059 22.5175C7.81478 23.5883 5.79293 20.6762 5.08617 19.9472C4.36165 19.2027 2.44637 17.7456 0.854492 17.3481Z" fill="#DEE0EA"/>
<path d="M6.84935 22.6809C6.84935 22.6809 6.77904 22.6069 6.80273 22.638C7.06027 23.0006 8.57888 24.9174 8.78313 25.3185C9.00885 25.7566 8.61292 24.7968 8.61292 24.7968L6.84935 22.6809Z" fill="#DEE0EA"/>
<path d="M1.83496 19.9961C1.83496 19.9961 6.12732 24.324 7.30106 25.1654C8.79525 26.2363 6.7734 23.3242 6.06664 22.5952C5.34286 21.8485 3.42758 20.3935 1.83496 19.9961Z" fill="#DEE0EA"/>
<path d="M7.83102 25.3281C7.83102 25.3281 7.75702 25.2541 7.7844 25.2852C8.04194 25.6478 9.60273 27.6305 9.80921 28.0323C10.0312 28.4704 9.60939 27.4173 9.60939 27.4173L7.83102 25.3281Z" fill="#DEE0EA"/>
<path d="M2.17871 22.5522C2.17871 22.5522 6.92325 26.8994 8.09403 27.7371C9.58747 28.808 7.20595 25.5488 6.49697 24.8198C5.77319 24.0738 3.77132 22.9489 2.17871 22.5522Z" fill="#DEE0EA"/>
<path d="M8.54429 27.908C8.54429 27.908 8.50284 27.8673 8.5317 27.908C8.83957 28.3461 10.7252 30.6921 10.9828 31.1709C11.2648 31.6941 10.7556 30.4427 10.7556 30.4427L8.54429 27.908Z" fill="#DEE0EA"/>
<path d="M2.57227 25.7708C2.57227 25.7708 4.34397 27.3086 6.07498 28.4853C7.23688 29.2757 8.4121 29.7678 8.9035 30.0283C10.4576 30.8513 7.71125 28.0538 6.93493 27.43C6.1401 26.7906 4.09753 25.8633 2.57227 25.7708Z" fill="#DEE0EA"/>
<path d="M9.33921 30.0912C9.33921 30.0912 9.29776 30.0513 9.32662 30.0912C9.63449 30.5294 11.6682 33.067 11.9094 33.5496C11.9664 33.6643 11.5786 32.6393 11.5786 32.6393L9.33921 30.0912Z" fill="#DEE0EA"/>
<path d="M3.63184 28.5703C3.63184 28.5703 5.62408 30.3035 7.56526 31.6356C8.86925 32.5304 10.1836 33.0973 10.7335 33.3933C12.4741 34.331 9.3799 31.1916 8.50737 30.4863C7.61411 29.7655 5.32954 28.7013 3.63184 28.5703Z" fill="#DEE0EA"/>
<path d="M5.08398 33.3377C5.08398 33.3377 7.34191 33.9002 9.13804 34.5958C11.2443 35.4099 11.558 35.4647 12.0243 35.4647C13.4896 35.4647 9.55692 32.9107 8.72657 32.665C7.87254 32.4097 6.1889 32.5155 5.08398 33.3377Z" fill="#DEE0EA"/>
<path d="M11.2957 33.5473C11.2706 33.518 11.2439 33.4901 11.2158 33.4636C11.3831 33.6856 12.3259 34.6277 12.4214 34.8927C12.4443 34.9556 12.2608 34.4279 12.2608 34.4279L11.2957 33.5473Z" fill="#DEE0EA"/>
<path d="M12.1678 35.2434C12.1678 35.2434 12.1079 35.1975 12.116 35.2071C12.2055 35.3152 12.7917 35.72 12.8102 35.8658C12.8139 35.9006 12.7872 35.6082 12.7872 35.6082L12.1678 35.2434Z" fill="#DEE0EA"/>
<path d="M33.1315 17.8013L23.8926 36.7543L24.3677 36.7957L33.1315 17.8013Z" fill="#A8A9C6"/>
<path d="M33.4859 14.4778C33.4859 14.4778 32.842 17.0569 33.1314 17.8014C33.1314 17.8014 34.1505 16.3857 33.4859 14.4778Z" fill="#A8A9C6"/>
<path d="M31.5225 15.0254C31.5225 15.0254 32.056 17.2959 32.6407 17.7769C32.6407 17.7769 32.9515 16.2865 31.5225 15.0254Z" fill="#A8A9C6"/>
<path d="M35.557 14.0217C35.557 14.0217 33.1828 16.6327 33.2576 17.6998C33.2576 17.6998 35.6273 16.7067 35.557 14.0217Z" fill="#A8A9C6"/>
<path d="M30.4805 15.8896C30.4805 15.8896 30.9415 18.7759 31.1169 19.59C31.1584 19.7816 31.2109 19.8727 31.2686 19.8926C31.4403 19.9526 31.6527 19.3746 31.726 18.9668C31.8229 18.4258 31.6979 16.7045 30.4805 15.8896Z" fill="#A8A9C6"/>
<path d="M31.3105 19.8527C31.3105 19.8527 31.3054 19.8371 31.3039 19.8608C31.2943 20.1132 31.2358 21.6451 31.1559 21.8982C31.0663 22.175 31.3557 21.5518 31.3557 21.5518L31.3105 19.8527Z" fill="#A8A9C6"/>
<path d="M32.6439 17.748C32.6439 17.748 32.6194 17.7317 32.6209 17.7413C32.6638 17.9915 32.4899 18.9883 32.4078 19.2414C32.3182 19.5182 32.5432 19.029 32.5432 19.029L32.6439 17.748Z" fill="#A8A9C6"/>
<path d="M29.7438 16.9385C29.7438 16.9385 29.5795 20.6329 29.928 21.5158C30.3721 22.6392 30.8442 20.7121 30.8205 20.342C30.7969 19.972 30.8524 17.8621 29.7438 16.9385Z" fill="#A8A9C6"/>
<path d="M32.6439 17.748C32.6439 17.748 32.6194 17.7317 32.6209 17.7413C32.6638 17.9915 32.4899 18.9883 32.4078 19.2414C32.3182 19.5182 32.5432 19.029 32.5432 19.029L32.6439 17.748Z" fill="#A8A9C6"/>
<path d="M30.2658 21.7377C30.2658 21.7377 30.2599 21.7206 30.2592 21.7465C30.2459 22.0278 30.1696 23.7336 30.0845 24.0163C29.9913 24.3257 30.2881 23.6285 30.2881 23.6285L30.2658 21.7377Z" fill="#A8A9C6"/>
<path d="M27.4883 18.1641C27.4883 18.1641 28.1699 22.472 28.7131 23.4318C29.4043 24.6537 29.6752 22.2869 29.5708 21.8629C29.4665 21.4388 28.7856 19.0351 27.4883 18.1641Z" fill="#A8A9C6"/>
<path d="M29.1229 23.7426C29.1229 23.7426 29.1096 23.6686 29.1081 23.699C29.094 24.0127 29.1695 25.7334 29.0741 26.0494C28.9705 26.3943 29.2961 25.6794 29.2961 25.6794L29.1229 23.7426Z" fill="#A8A9C6"/>
<path d="M26.0957 19.9927C26.0957 19.9927 27.1103 24.496 27.6498 25.515C28.3329 26.8116 28.5172 24.1481 28.3625 23.3962C28.199 22.6266 27.3864 20.9126 26.0957 19.9927Z" fill="#A8A9C6"/>
<path d="M28.0524 25.8405C28.0524 25.8405 28.0391 25.7628 28.0377 25.7932C28.0214 26.1277 28.085 27.9593 27.9881 28.2961C27.8815 28.6661 28.2101 27.9001 28.2101 27.9001L28.0524 25.8405Z" fill="#A8A9C6"/>
<path d="M25.0684 22.0515C25.0684 22.0515 26.0822 26.5548 26.6225 27.5739C27.3056 28.8712 27.4906 26.207 27.3359 25.4558C27.1738 24.6854 26.3605 22.9722 25.0684 22.0515Z" fill="#A8A9C6"/>
<path d="M27.026 27.8994C27.026 27.8994 27.0134 27.8254 27.0119 27.8528C26.9949 28.1873 27.0527 30.0789 26.9557 30.4156C26.8491 30.7856 27.2214 29.9494 27.2214 29.9494L27.026 27.8994Z" fill="#A8A9C6"/>
<path d="M23.4756 23.7847C23.4756 23.7847 24.9261 28.487 25.4627 29.5068C26.1457 30.8034 26.2308 27.7714 26.0762 27.0195C25.9178 26.2498 24.7677 24.7046 23.4756 23.7847Z" fill="#A8A9C6"/>
<path d="M25.7834 29.8029C25.7834 29.8029 25.7723 29.7607 25.7701 29.7977C25.7464 30.1995 25.8545 32.4545 25.7494 32.8608C25.6354 33.3048 26.0743 32.3124 26.0743 32.3124L25.7834 29.8029Z" fill="#A8A9C6"/>
<path d="M21.4287 25.9502C21.4287 25.9502 22.0356 27.6523 22.8755 29.1177C23.4395 30.0997 24.2417 30.9027 24.5362 31.272C25.4694 32.4413 24.8404 29.5417 24.5362 28.8298C24.2254 28.0927 22.8852 26.6525 21.4287 25.9502Z" fill="#A8A9C6"/>
<path d="M24.9233 31.4955C24.9233 31.4955 24.9129 31.4533 24.9107 31.4903C24.887 31.8922 24.998 34.3284 24.8737 34.7303C24.8441 34.8258 25.2326 34.025 25.2326 34.025L24.9233 31.4955Z" fill="#A8A9C6"/>
<path d="M20.3652 28.137C20.3652 28.137 21.0461 30.0545 21.9793 31.7033C22.6054 32.8134 23.4905 33.7178 23.8161 34.1344C24.8478 35.4547 24.1314 32.1947 23.7917 31.3888C23.4446 30.5629 21.9645 28.9362 20.3652 28.137Z" fill="#A8A9C6"/>
<path d="M18.2061 31.7123C18.2061 31.7123 20.0384 33.0163 21.3106 34.2056C22.8026 35.6006 23.0734 35.7686 23.5367 35.964C25.0028 36.5841 23.0039 33.3345 22.3593 32.8305C21.6991 32.3147 19.9341 31.6686 18.2061 31.7123Z" fill="#A8A9C6"/>
<path d="M24.2622 34.4689C24.2577 34.4394 24.251 34.4102 24.2422 34.3816C24.2422 34.5918 24.4642 35.5731 24.3643 35.7788C24.3391 35.8277 24.556 35.4229 24.556 35.4229L24.2622 34.4689Z" fill="#A8A9C6"/>
<path d="M23.8487 35.8915C23.8487 35.8915 23.8235 35.8375 23.8242 35.8471C23.8316 35.9522 24.1121 36.4517 24.0189 36.5494C23.9974 36.5731 24.1913 36.3799 24.1913 36.3799L23.8487 35.8915Z" fill="#A8A9C6"/>
<path d="M34.9804 15.6604C34.9804 15.6604 33.5254 17.9265 32.8838 18.3927C32.8838 18.3927 33.37 16.8859 34.9804 15.6604Z" fill="#A8A9C6"/>
<path d="M35.5269 16.8599C35.5269 16.8599 33.7308 18.4199 33.1299 18.562C33.1299 18.5672 33.9987 17.2817 35.5269 16.8599Z" fill="#A8A9C6"/>
<path d="M34.3209 14.4858C34.3209 14.4858 33.6548 17.4609 32.8933 18.2639C32.8933 18.2661 32.4603 16.5528 34.3209 14.4858Z" fill="#A8A9C6"/>
<path d="M35.4271 17.9495C35.4271 17.9495 33.2454 20.0216 32.6082 20.5856C32.4602 20.7188 32.3714 20.7691 32.3307 20.7617C32.2101 20.741 32.5039 20.2052 32.7474 19.8588C33.0715 19.397 34.3022 18.1034 35.4271 17.9495Z" fill="#A8A9C6"/>
<path d="M32.3391 20.7127C32.3391 20.7127 32.3524 20.7031 32.3391 20.7216C32.1719 20.9221 31.155 22.1395 31.0225 22.3697C30.8745 22.6213 31.1646 22.0211 31.1646 22.0211L32.3391 20.7127Z" fill="#A8A9C6"/>
<path d="M33.1468 18.5452C33.1468 18.5452 33.1697 18.5452 33.1623 18.5496C32.9721 18.7272 32.3749 19.5739 32.2402 19.804C32.0922 20.0549 32.3216 19.582 32.3216 19.582L33.1468 18.5452Z" fill="#A8A9C6"/>
<path d="M35.0583 19.0588C35.0583 19.0588 32.6198 22.005 31.8553 22.5556C30.8829 23.2572 31.973 21.5669 32.2357 21.2879C32.4985 21.0089 33.9098 19.3408 35.0583 19.0588Z" fill="#A8A9C6"/>
<path d="M33.1468 18.5452C33.1468 18.5452 33.1697 18.5452 33.1623 18.5496C32.9721 18.7272 32.3749 19.5739 32.2402 19.804C32.0922 20.0549 32.3216 19.582 32.3216 19.582L33.1468 18.5452Z" fill="#A8A9C6"/>
<path d="M31.5452 22.5955C31.5452 22.5955 31.5592 22.5844 31.5452 22.6051C31.3594 22.8271 30.2338 24.1903 30.0806 24.4449C29.9141 24.7224 30.2493 24.0616 30.2493 24.0616L31.5452 22.5955Z" fill="#A8A9C6"/>
<path d="M35.2794 20.905C35.2794 20.905 32.0268 23.9963 31.1188 24.5313C29.9635 25.2115 31.4466 23.2569 31.7848 22.9683C32.123 22.6797 34.079 21.0715 35.2794 20.905Z" fill="#A8A9C6"/>
<path d="M30.7177 24.6092C30.7177 24.6092 30.7732 24.5574 30.754 24.5803C30.5475 24.8312 29.3405 26.1433 29.1695 26.4305C28.9838 26.7406 29.3175 26.053 29.3175 26.053L30.7177 24.6092Z" fill="#A8A9C6"/>
<path d="M34.6871 22.8833C34.6871 22.8833 31.1459 25.9916 30.2008 26.5777C28.9975 27.3178 30.7248 25.1716 31.3109 24.6432C31.9074 24.1051 33.4549 23.0898 34.6871 22.8833Z" fill="#A8A9C6"/>
<path d="M29.7876 26.6702C29.7876 26.6702 29.8468 26.6147 29.8261 26.6398C29.6041 26.907 28.3297 28.3102 28.1461 28.6114C27.9456 28.9407 28.3104 28.214 28.3104 28.214L29.7876 26.6702Z" fill="#A8A9C6"/>
<path d="M33.7662 24.8948C33.7662 24.8948 30.225 28.0067 29.2799 28.5892C28.0766 29.3292 29.8039 27.183 30.39 26.6554C30.9865 26.1174 32.5347 25.1013 33.7662 24.8948Z" fill="#A8A9C6"/>
<path d="M28.8668 28.6826C28.8668 28.6826 28.926 28.6271 28.9052 28.6515C28.6832 28.9186 27.3704 30.3714 27.1868 30.6726C26.9863 31.0019 27.38 30.2041 27.38 30.2041L28.8668 28.6826Z" fill="#A8A9C6"/>
<path d="M33.3315 26.876C33.3315 26.876 29.4499 29.9709 28.5048 30.5541C27.3022 31.2941 29.3263 28.8963 29.9109 28.3716C30.5089 27.8336 32.1 27.0825 33.3315 26.876Z" fill="#A8A9C6"/>
<path d="M28.1524 30.6578C28.1524 30.6578 28.1865 30.6296 28.1621 30.6578C27.8993 30.9812 26.3119 32.6966 26.0862 33.0556C25.8375 33.4471 26.3082 32.499 26.3082 32.499L28.1524 30.6578Z" fill="#A8A9C6"/>
<path d="M32.8151 29.3737C31.903 30.0542 30.957 30.688 29.9807 31.2727C29.0482 31.8159 28.1254 32.1253 27.7361 32.297C26.5032 32.8402 28.7722 30.8272 29.402 30.3883C30.0466 29.9399 31.6547 29.3463 32.8151 29.3737Z" fill="#A8A9C6"/>
<path d="M27.4032 32.3185C27.4032 32.3185 27.4365 32.2896 27.412 32.3185C27.1493 32.6419 25.439 34.498 25.2237 34.8606C25.1726 34.9465 25.5353 34.1686 25.5353 34.1686L27.4032 32.3185Z" fill="#A8A9C6"/>
<path d="M31.8244 31.4991C31.8244 31.4991 30.1962 32.7261 28.6421 33.6453C27.5949 34.261 26.5625 34.6192 26.1259 34.8161C24.7442 35.4377 27.2996 33.1783 28.0071 32.6832C28.7294 32.1792 30.5307 31.491 31.8244 31.4991Z" fill="#A8A9C6"/>
<path d="M30.4014 35.1396C30.4014 35.1396 28.6548 35.4357 27.2494 35.8582C25.6006 36.3563 25.3593 36.3763 25.0093 36.3504C23.8992 36.2542 27.0496 34.5091 27.6942 34.3707C28.3543 34.2316 29.6213 34.4247 30.4014 35.1396Z" fill="#A8A9C6"/>
<path d="M25.6878 34.8991C25.7097 34.8779 25.7327 34.8579 25.7566 34.8391C25.6153 35.0041 24.8397 35.6791 24.7479 35.8811C24.7265 35.9285 24.9011 35.5266 24.9011 35.5266L25.6878 34.8991Z" fill="#A8A9C6"/>
<path d="M24.9119 36.1757C24.9119 36.1757 24.9608 36.1439 24.9541 36.1513C24.8801 36.2297 24.4079 36.5087 24.3843 36.6219C24.3791 36.6486 24.419 36.4214 24.419 36.4214L24.9119 36.1757Z" fill="#A8A9C6"/>
</g>
<defs>
<clipPath id="clip0_773_247">
<rect width="35.7557" height="38.0221" fill="white"/>
</clipPath>
</defs>
</svg>
